<svg width="33" height="44" viewBox="0 0 33 44" fill="none" xmlns="http://www.w3.org/2000/svg">
<path d="M23.4286 4.85693H26.2857C27.4224 4.85693 28.5124 5.30846 29.3162 6.11219C30.1199 6.91592 30.5714 8.00601 30.5714 9.14265V37.7141C30.5714 38.8507 30.1199 39.9408 29.3162 40.7445C28.5124 41.5483 27.4224 41.9998 26.2857 41.9998H6.28571C5.14907 41.9998 4.05898 41.5483 3.25526 40.7445C2.45153 39.9408 2 38.8507 2 37.7141V9.14265C2 8.00601 2.45153 6.91592 3.25526 6.11219C4.05898 5.30846 5.14907 4.85693 6.28571 4.85693H9.14286" stroke="white" stroke-width="3" stroke-linejoin="round"/>
<path d="M21.0955 2H11.4759C10.1874 2 9.14282 3.04454 9.14282 4.33304V5.38125C9.14282 6.66975 10.1874 7.71429 11.4759 7.71429H21.0955C22.384 7.71429 23.4285 6.66975 23.4285 5.38125V4.33304C23.4285 3.04454 22.384 2 21.0955 2Z" stroke="white" stroke-width="3" stroke-linejoin="round"/>
</svg>
