<svg width="599" height="352" viewBox="0 0 599 352" fill="none" xmlns="http://www.w3.org/2000/svg">
<path d="M228.678 196.421C228.678 196.421 228.736 188.023 223.44 181.726C218.754 176.15 216.26 172.613 217.737 170.981C219.215 169.35 222.392 168.959 226.676 173.47C230.96 177.982 231.294 190.48 230.701 193.308L228.678 196.421Z" fill="#407BFF"/>
<path opacity="0.2" d="M228.678 196.421C228.678 196.421 228.736 188.023 223.44 181.726C218.754 176.15 216.26 172.613 217.737 170.981C219.215 169.35 222.392 168.959 226.676 173.47C230.96 177.982 231.294 190.48 230.701 193.308L228.678 196.421Z" fill="black"/>
<path d="M229.567 187.392C229.507 187.393 229.448 187.372 229.401 187.335C229.354 187.297 229.321 187.245 229.308 187.186C227.454 178.517 222.699 173.724 220.025 171.638C219.969 171.595 219.933 171.532 219.924 171.462C219.915 171.393 219.934 171.323 219.977 171.267C220.021 171.212 220.085 171.175 220.155 171.166C220.226 171.158 220.297 171.177 220.353 171.22C223.08 173.338 227.936 178.242 229.827 187.075C229.835 187.108 229.836 187.143 229.83 187.177C229.824 187.212 229.811 187.244 229.792 187.273C229.773 187.302 229.749 187.327 229.72 187.347C229.692 187.366 229.66 187.38 229.626 187.387L229.567 187.392Z" fill="white"/>
<path d="M228.476 199.54L226.321 200.785C226.091 200.157 225.704 199.598 225.195 199.163C224.687 198.728 224.075 198.431 223.419 198.301C221.063 197.772 218.616 197.862 216.964 195.818C215.312 193.774 217.324 191.549 216.964 190.046C216.604 188.542 216.371 188.107 213.416 186.603C210.461 185.099 209.296 182.605 211.52 180.916C213.744 179.227 217.345 180.466 219.527 181.975C221.465 183.299 223.308 183.648 225.474 183.919C227.64 184.189 231.167 185.391 230.626 190.422C230.273 193.535 229.551 196.596 228.476 199.54V199.54Z" fill="#407BFF"/>
<path d="M220.205 192.932C220.148 192.931 220.094 192.913 220.048 192.88C220.002 192.846 219.968 192.8 219.951 192.746C219.931 192.679 219.938 192.606 219.97 192.544C220.003 192.482 220.059 192.435 220.125 192.413C220.316 192.354 224.891 190.903 226.835 192.46C226.883 192.506 226.912 192.568 226.917 192.634C226.922 192.7 226.902 192.766 226.86 192.818C226.819 192.869 226.76 192.904 226.694 192.914C226.629 192.925 226.562 192.91 226.506 192.873C224.791 191.496 220.332 192.905 220.284 192.921L220.205 192.932Z" fill="white"/>
<path d="M228.715 199.138C228.65 199.138 228.588 199.115 228.54 199.071C228.492 199.028 228.462 198.969 228.455 198.905C227.274 187.752 213.84 182.462 213.707 182.409C213.674 182.397 213.644 182.378 213.619 182.354C213.593 182.33 213.573 182.301 213.558 182.269C213.544 182.237 213.536 182.203 213.536 182.168C213.535 182.133 213.541 182.098 213.554 182.065C213.58 182.001 213.629 181.949 213.692 181.921C213.755 181.892 213.827 181.889 213.893 181.911C214.036 181.97 227.767 187.371 228.98 198.857C228.987 198.927 228.967 198.996 228.923 199.051C228.879 199.105 228.816 199.141 228.747 199.149L228.715 199.138Z" fill="white"/>
<path d="M360.431 192.217C360.489 192.031 362.761 180.339 360.431 172.046C358.313 164.442 355.549 161.635 351.609 161.015C347.669 160.396 345.958 163.234 348.05 167.079C350.142 170.923 355.178 176.023 356.412 184.612C356.941 188.15 357.344 191.221 357.344 191.221L360.431 192.217Z" fill="#407BFF"/>
<path opacity="0.2" d="M360.431 192.217C360.489 192.031 362.761 180.339 360.431 172.046C358.313 164.442 355.549 161.635 351.609 161.015C347.669 160.396 345.958 163.234 348.05 167.079C350.142 170.923 355.178 176.023 356.412 184.612C356.941 188.15 357.344 191.221 357.344 191.221L360.431 192.217Z" fill="black"/>
<path d="M359.102 185.502C359.067 185.5 359.033 185.491 359.002 185.476C358.97 185.461 358.942 185.439 358.919 185.413C358.896 185.387 358.878 185.357 358.867 185.324C358.856 185.291 358.851 185.256 358.853 185.221C359.383 175.753 356.29 167.301 350.746 163.155C350.689 163.113 350.652 163.05 350.642 162.98C350.632 162.911 350.65 162.84 350.693 162.784C350.736 162.729 350.798 162.693 350.867 162.683C350.936 162.673 351.007 162.69 351.063 162.731C356.745 166.968 359.933 175.61 359.377 185.253C359.373 185.322 359.342 185.387 359.291 185.434C359.239 185.48 359.171 185.505 359.102 185.502Z" fill="white"/>
<path d="M366.526 198.307C366.225 196.13 367.474 192.868 370.445 192.095C373.416 191.322 374.74 189.617 373.67 187.753C372.6 185.889 372.849 184.178 375.545 183.405C378.24 182.632 380.602 181.287 379.05 178.438C377.922 176.378 377.674 175.043 380.438 170.987C382.731 167.619 380.856 165.644 377.986 166.014C375.116 166.385 373.342 169.806 371.547 170.378C369.751 170.95 369.338 167.9 366.971 169.266C364.604 170.632 364.747 174.132 364.673 176.574C364.599 179.015 364.44 179.566 362.301 179.269C360.161 178.973 358.064 179.322 358.112 184.496C358.149 188.934 360.516 194.43 360.516 194.43L366.526 198.307Z" fill="#407BFF"/>
<path d="M362.772 194.997H362.745C362.675 194.989 362.61 194.953 362.565 194.898C362.521 194.842 362.5 194.771 362.507 194.7C364 181.361 375.449 170.108 378.436 167.825C378.492 167.782 378.563 167.764 378.633 167.773C378.703 167.783 378.767 167.819 378.809 167.876C378.852 167.932 378.871 168.003 378.862 168.073C378.852 168.143 378.815 168.206 378.759 168.249C375.81 170.5 364.509 181.604 363.037 194.759C363.029 194.824 362.998 194.884 362.949 194.928C362.9 194.971 362.837 194.996 362.772 194.997V194.997Z" fill="white"/>
<path d="M367.993 180.736C367.94 180.736 367.887 180.719 367.843 180.689C367.799 180.659 367.764 180.616 367.744 180.566C367.722 180.5 367.726 180.427 367.755 180.363C367.785 180.299 367.838 180.248 367.903 180.222C372.171 178.634 377.012 179.386 377.218 179.417C377.287 179.429 377.348 179.467 377.389 179.524C377.429 179.58 377.446 179.65 377.435 179.719C377.422 179.787 377.384 179.848 377.328 179.89C377.272 179.931 377.202 179.949 377.133 179.942C377.086 179.942 372.224 179.179 368.089 180.72C368.058 180.73 368.026 180.736 367.993 180.736V180.736Z" fill="white"/>
<path d="M364.191 188.753C364.154 188.753 364.117 188.745 364.084 188.729C364.05 188.714 364.02 188.691 363.995 188.663C362.22 186.596 361.017 184.1 360.505 181.424C360.5 181.39 360.502 181.355 360.51 181.321C360.518 181.287 360.533 181.255 360.554 181.227C360.575 181.199 360.601 181.175 360.63 181.157C360.66 181.14 360.693 181.128 360.728 181.122C360.762 181.117 360.797 181.119 360.831 181.127C360.865 181.135 360.897 181.15 360.925 181.171C360.953 181.192 360.977 181.218 360.995 181.247C361.013 181.277 361.024 181.31 361.03 181.345C361.536 183.916 362.694 186.313 364.392 188.309C364.425 188.347 364.447 188.395 364.454 188.446C364.461 188.496 364.454 188.548 364.432 188.595C364.411 188.641 364.378 188.681 364.335 188.709C364.292 188.737 364.242 188.752 364.191 188.753V188.753Z" fill="white"/>
<path d="M228.476 117.581V199.546L312.369 151.113L312.363 76.5989L249.987 112.614L247.832 106.402L228.476 117.581Z" fill="#407BFF"/>
<path opacity="0.7" d="M228.476 117.581V199.546L312.369 151.113L312.363 76.5989L249.987 112.614L247.832 106.402L228.476 117.581Z" fill="black"/>
<path d="M228.476 199.546L232.776 125.032L316.669 76.5989L312.369 151.113L228.476 199.546Z" fill="#E0E0E0"/>
<path d="M228.476 199.546L234.926 126.277L318.819 77.8381L312.369 151.113L228.476 199.546Z" fill="#407BFF"/>
<path opacity="0.7" d="M228.476 199.546L234.926 126.277L318.819 77.8381L312.369 151.113L228.476 199.546Z" fill="black"/>
<path d="M241.382 125.032V207.002L325.274 158.563V84.0496L262.892 120.065L260.742 113.853L241.382 125.032Z" fill="#407BFF"/>
<path opacity="0.5" d="M241.382 125.032V207.002L325.274 158.563V84.0496L262.892 120.065L260.742 113.853L241.382 125.032Z" fill="black"/>
<path d="M241.382 207.002L245.682 132.483L329.574 84.0496L325.274 158.563L241.382 207.002Z" fill="#E0E0E0"/>
<path d="M241.382 207.002L247.832 133.727L331.724 85.2888L325.274 158.563L241.382 207.002Z" fill="#407BFF"/>
<path opacity="0.5" d="M241.382 207.002L247.832 133.727L331.724 85.2888L325.274 158.563L241.382 207.002Z" fill="black"/>
<path d="M312.347 233.083C297.287 224.387 283.317 214.935 276.941 203.846L296.323 192.656L312.347 233.083Z" fill="#E0E0E0"/>
<path d="M256.437 133.727V215.692L340.329 167.259V92.7451L277.948 128.76L275.798 122.549L256.437 133.727Z" fill="#407BFF"/>
<path opacity="0.2" d="M256.437 133.727V215.692L340.329 167.259V92.7451L277.948 128.76L275.798 122.549L256.437 133.727Z" fill="black"/>
<path d="M280.606 157.96C280.394 157.96 280.362 157.716 280.362 157.573V87.6718C280.379 87.4007 280.459 87.1371 280.595 86.9019C280.731 86.6667 280.92 86.4662 281.146 86.3162L341.695 51.3655C341.778 51.3138 341.873 51.2846 341.971 51.2808C342.183 51.2808 342.214 51.5244 342.214 51.6673V121.569C342.198 121.841 342.118 122.105 341.982 122.341C341.846 122.577 341.658 122.779 341.431 122.93L280.881 157.88C280.798 157.93 280.703 157.957 280.606 157.96Z" fill="white"/>
<path d="M341.939 51.5243C341.943 51.5631 341.943 51.6021 341.939 51.6408V121.542C341.922 121.768 341.854 121.986 341.741 122.182C341.629 122.379 341.474 122.547 341.288 122.675L280.738 157.626L280.632 157.674C280.625 157.635 280.625 157.596 280.632 157.557V87.6559C280.651 87.4314 280.718 87.2137 280.831 87.0187C280.944 86.8236 281.098 86.656 281.284 86.528L341.833 51.5773C341.867 51.5539 341.904 51.5377 341.944 51.5296L341.939 51.5243ZM341.976 51.0001C341.832 51.0044 341.691 51.0464 341.568 51.1219L281.019 86.0726C280.753 86.2474 280.531 86.4822 280.372 86.7581C280.213 87.034 280.121 87.3433 280.103 87.6612V157.563C280.103 157.976 280.309 158.214 280.632 158.214C280.777 158.21 280.917 158.168 281.04 158.092L341.59 123.141C341.857 122.968 342.079 122.733 342.239 122.457C342.398 122.181 342.489 121.871 342.506 121.553V51.6514C342.506 51.2384 342.299 50.9948 341.976 51.0001V51.0001Z" fill="#407BFF"/>
<path opacity="0.7" d="M341.939 51.5243C341.943 51.5631 341.943 51.6021 341.939 51.6408V121.542C341.922 121.768 341.854 121.986 341.741 122.182C341.629 122.379 341.474 122.547 341.288 122.675L280.738 157.626L280.632 157.674C280.625 157.635 280.625 157.596 280.632 157.557V87.6559C280.651 87.4314 280.718 87.2137 280.831 87.0187C280.944 86.8236 281.098 86.656 281.284 86.528L341.833 51.5773C341.867 51.5539 341.904 51.5377 341.944 51.5296L341.939 51.5243ZM341.976 51.0001C341.832 51.0044 341.691 51.0464 341.568 51.1219L281.019 86.0726C280.753 86.2474 280.531 86.4822 280.372 86.7581C280.213 87.034 280.121 87.3433 280.103 87.6612V157.563C280.103 157.976 280.309 158.214 280.632 158.214C280.777 158.21 280.917 158.168 281.04 158.092L341.59 123.141C341.857 122.968 342.079 122.733 342.239 122.457C342.398 122.181 342.489 121.871 342.506 121.553V51.6514C342.506 51.2384 342.299 50.9948 341.976 51.0001V51.0001Z" fill="white"/>
<path d="M286.553 90.3251L308.063 77.907V102.743L286.553 115.161V90.3251Z" fill="#407BFF"/>
<path opacity="0.8" d="M286.553 90.3251L308.063 77.907V102.743L286.553 115.161V90.3251Z" fill="white"/>
<path d="M304.838 84.0974V91.5642L304.161 91.9401V89.6577C304.161 88.3974 303.138 87.9685 301.868 88.6993L292.754 93.9683C291.488 94.6991 290.461 96.3143 290.461 97.5746V99.857L289.788 100.259V92.8086L304.838 84.0974Z" fill="white"/>
<path d="M300.697 103.108C299.596 103.744 298.701 103.077 298.701 101.61V89.6577L295.931 91.1617V103.209C295.931 104.671 295.036 106.386 293.935 107.006L291.933 108.16V108.955L302.688 102.743V101.954L300.697 103.108Z" fill="white"/>
<path d="M312.347 76.6835C312.347 77.3719 312.967 77.5678 313.724 77.1336L334.652 65.0332C335.024 64.8228 335.341 64.5292 335.58 64.1755C335.819 63.8217 335.973 63.4175 336.029 62.9945C336.029 62.3113 335.41 62.1101 334.652 62.5496L313.74 74.6235C313.363 74.8336 313.04 75.1295 312.798 75.4873C312.556 75.8452 312.402 76.2549 312.347 76.6835V76.6835Z" fill="#455A64"/>
<path d="M312.347 84.0974C312.347 84.7858 312.967 84.9871 313.724 84.5476L334.636 72.4737C335.008 72.2632 335.325 71.9696 335.564 71.6159C335.803 71.2622 335.957 70.8579 336.013 70.4349C336.013 69.7518 335.394 69.5505 334.636 69.9901L313.724 82.0639C313.354 82.2739 313.037 82.5666 312.798 82.9194C312.559 83.2721 312.405 83.6753 312.347 84.0974Z" fill="#455A64"/>
<path d="M312.347 91.564C312.347 92.2524 312.967 92.4536 313.724 92.0141L334.636 79.9402C335.007 79.7303 335.324 79.4375 335.563 79.0848C335.802 78.732 335.956 78.3289 336.013 77.9067C336.013 77.2183 335.394 77.0171 334.636 77.4566L313.724 89.5305C313.354 89.7404 313.037 90.0332 312.798 90.3859C312.559 90.7387 312.405 91.1419 312.347 91.564V91.564Z" fill="#455A64"/>
<path d="M312.347 99.0149C312.347 99.7033 312.967 99.9046 313.724 99.465L334.636 87.3912C335.007 87.1812 335.324 86.8884 335.563 86.5357C335.802 86.183 335.956 85.7798 336.013 85.3577C336.013 84.6692 335.394 84.468 334.636 84.9075L313.724 96.9814C313.354 97.1914 313.037 97.4841 312.798 97.8369C312.559 98.1896 312.405 98.5928 312.347 99.0149V99.0149Z" fill="#455A64"/>
<path d="M286.553 121.373C286.553 122.061 287.167 122.262 287.93 121.823L334.652 94.8156C335.023 94.6063 335.341 94.3137 335.58 93.9608C335.819 93.6079 335.973 93.2044 336.029 92.7821C336.029 92.0937 335.41 91.8977 334.652 92.332L287.93 119.339C287.558 119.548 287.24 119.841 287.001 120.194C286.762 120.547 286.609 120.95 286.553 121.373V121.373Z" fill="#455A64"/>
<path d="M286.553 128.824C286.553 129.512 287.167 129.713 287.93 129.274L334.652 102.298C335.024 102.088 335.341 101.794 335.58 101.44C335.819 101.087 335.973 100.682 336.029 100.259C336.029 99.5762 335.41 99.375 334.652 99.8145L287.93 126.79C287.558 126.999 287.24 127.292 287.001 127.645C286.762 127.997 286.609 128.401 286.553 128.824V128.824Z" fill="#455A64"/>
<path d="M286.553 136.28C286.553 136.963 287.167 137.164 287.93 136.725L334.652 109.749C335.024 109.539 335.341 109.245 335.58 108.891C335.819 108.538 335.973 108.133 336.029 107.71C336.029 107.027 335.41 106.826 334.652 107.265L287.93 134.241C287.557 134.451 287.239 134.744 287 135.098C286.761 135.452 286.608 135.856 286.553 136.28V136.28Z" fill="#455A64"/>
<path d="M256.437 215.692L271.492 149.874L355.384 101.435L340.329 167.259L256.437 215.692Z" fill="#407BFF"/>
<path d="M276.963 155.026V203.846L296.323 192.667V143.852L276.963 155.026Z" fill="#407BFF"/>
<path opacity="0.2" d="M276.963 155.026V203.846L296.323 192.667V143.852L276.963 155.026Z" fill="black"/>
<path d="M312.385 232.765C310.738 231.536 294.862 219.404 286.791 202.051C278.202 183.601 278.212 162.08 278.212 153.983V153.729L335.764 120.504C335.764 128.675 335.764 150.228 344.391 168.742C352.276 185.687 367.543 197.666 369.963 199.498L312.385 232.765Z" fill="white"/>
<path d="M335.5 120.981C335.5 129.496 335.664 150.636 344.153 168.874C351.773 185.237 366.262 197.004 369.487 199.488L312.4 232.447C310.171 230.768 294.893 218.838 287.035 201.961C278.456 183.564 278.456 162.085 278.456 153.999V153.898L335.478 120.976L335.5 120.981ZM336.008 120.059L277.926 153.596C277.926 161.217 277.767 183.357 286.532 202.183C295.158 220.659 312.347 233.083 312.347 233.083L370.445 199.541C370.445 199.541 353.234 187.117 344.634 168.641C335.865 149.815 336.029 127.675 336.029 120.054L336.008 120.059Z" fill="#407BFF"/>
<path opacity="0.7" d="M335.5 120.981C335.5 129.496 335.664 150.636 344.153 168.874C351.773 185.237 366.262 197.004 369.487 199.488L312.4 232.447C310.171 230.768 294.893 218.838 287.035 201.961C278.456 183.564 278.456 162.085 278.456 153.999V153.898L335.478 120.976L335.5 120.981ZM336.008 120.059L277.926 153.596C277.926 161.217 277.767 183.357 286.532 202.183C295.158 220.659 312.347 233.083 312.347 233.083L370.445 199.541C370.445 199.541 353.234 187.117 344.634 168.641C335.865 149.815 336.029 127.675 336.029 120.054L336.008 120.059Z" fill="white"/>
<path d="M329.457 131.307L311.092 141.898C310.725 142.101 310.411 142.389 310.179 142.738C309.947 143.088 309.802 143.488 309.758 143.905C309.784 144.578 310.425 144.768 311.182 144.329L329.553 133.738C329.916 133.537 330.226 133.253 330.457 132.909C330.688 132.564 330.834 132.169 330.882 131.757C330.85 131.058 330.22 130.868 329.457 131.307Z" fill="#455A64"/>
<path d="M329.849 138.536L311.484 149.127C311.121 149.322 310.813 149.606 310.589 149.952C310.365 150.299 310.232 150.696 310.203 151.107C310.261 151.759 310.928 151.933 311.686 151.494L330.056 140.903C330.417 140.708 330.723 140.425 330.945 140.079C331.166 139.734 331.296 139.337 331.321 138.927C331.268 138.271 330.612 138.112 329.849 138.536Z" fill="#455A64"/>
<path d="M330.585 145.563L312.215 156.154C311.458 156.594 310.907 157.467 310.997 158.098C311.087 158.728 311.781 158.892 312.543 158.452L330.914 147.861C331.671 147.422 332.211 146.553 332.116 145.923C332.02 145.293 331.343 145.123 330.585 145.563Z" fill="#455A64"/>
<path d="M331.687 152.378L313.317 162.969C312.559 163.409 312.035 164.267 312.162 164.881C312.289 165.495 313.009 165.633 313.751 165.194L332.116 154.602C332.878 154.163 333.387 153.31 333.26 152.696C333.132 152.082 332.471 151.939 331.687 152.378Z" fill="#455A64"/>
<path d="M333.18 158.966L314.81 169.557C314.053 169.997 313.56 170.833 313.751 171.421C313.941 172.009 314.667 172.141 315.424 171.702L333.795 161.111C334.557 160.671 335.034 159.84 334.854 159.247C334.674 158.654 333.938 158.526 333.18 158.966Z" fill="#455A64"/>
<path d="M335.118 165.315L290.35 191.163C289.592 191.602 289.132 192.418 289.338 192.985C289.545 193.551 290.334 193.657 291.091 193.218L335.86 167.37C336.622 166.93 337.062 166.12 336.855 165.548C336.649 164.976 335.849 164.876 335.118 165.315Z" fill="#455A64"/>
<path d="M337.475 171.379L292.712 197.226C291.949 197.666 291.531 198.46 291.785 199C292.039 199.541 292.844 199.625 293.617 199.186L338.386 173.338C339.148 172.899 339.556 172.104 339.302 171.564C339.048 171.024 338.238 170.945 337.475 171.379Z" fill="#455A64"/>
<path d="M340.414 177.156L295.645 203.004C294.883 203.443 294.507 204.216 294.809 204.73C295.11 205.244 295.974 205.297 296.736 204.857L341.473 179.01C342.23 178.575 342.596 177.807 342.294 177.294C341.992 176.78 341.155 176.717 340.414 177.156Z" fill="#455A64"/>
<path d="M343.84 182.621L299.077 208.463C298.314 208.903 297.975 209.66 298.319 210.142C298.664 210.624 299.569 210.672 300.332 210.227L345.095 184.379C345.858 183.94 346.186 183.193 345.842 182.706C345.498 182.219 344.603 182.182 343.84 182.621Z" fill="#455A64"/>
<path d="M347.748 187.816L302.98 213.659C302.222 214.098 301.92 214.834 302.302 215.295C302.683 215.756 303.62 215.777 304.383 215.337L349.152 189.479C349.909 189.04 350.211 188.314 349.819 187.853C349.427 187.393 348.511 187.361 347.748 187.816Z" fill="#455A64"/>
<path d="M352.064 192.762L307.311 218.605C306.549 219.044 306.252 219.764 306.697 220.193C307.142 220.622 308.085 220.633 308.842 220.193L353.61 194.346C354.373 193.906 354.638 193.196 354.214 192.757C353.79 192.317 352.837 192.328 352.064 192.762Z" fill="#455A64"/>
<path d="M356.83 197.491L312.061 223.334C311.304 223.773 311.055 224.477 311.532 224.896C312.009 225.314 312.983 225.298 313.745 224.859L358.477 199.011C359.234 198.571 359.473 197.883 359.007 197.459C358.541 197.036 357.571 197.052 356.83 197.491Z" fill="#455A64"/>
<path d="M304.436 145.759L283.317 157.939C283.55 165.591 284.424 176.627 287.622 187.742L308.746 175.562C305.543 164.447 304.669 153.406 304.436 145.759Z" fill="#407BFF"/>
<path opacity="0.8" d="M304.436 145.759L283.317 157.939C283.55 165.591 284.424 176.627 287.622 187.742L308.746 175.562C305.543 164.447 304.669 153.406 304.436 145.759Z" fill="white"/>
<path d="M291.928 156.255C291.956 155.761 291.879 155.266 291.702 154.804C291.525 154.342 291.252 153.923 290.9 153.575L283.317 157.949C283.381 159.972 283.487 162.233 283.672 164.669C284.658 164.783 285.656 164.598 286.537 164.14C289.518 162.773 291.928 159.231 291.928 156.255Z" fill="#407BFF"/>
<path opacity="0.6" d="M291.928 156.255C291.956 155.761 291.879 155.266 291.702 154.804C291.525 154.342 291.252 153.923 290.9 153.575L283.317 157.949C283.381 159.972 283.487 162.233 283.672 164.669C284.658 164.783 285.656 164.598 286.537 164.14C289.518 162.773 291.928 159.231 291.928 156.255Z" fill="white"/>
<path d="M306.951 168.254C305.543 166.48 302.678 160.999 301.455 158.611C301.406 158.517 301.331 158.439 301.238 158.388C301.146 158.336 301.04 158.314 300.934 158.324C300.829 158.334 300.729 158.375 300.647 158.442C300.565 158.509 300.505 158.599 300.475 158.701C299.151 163.225 298.383 167.893 298.187 172.602C296.423 171.202 294.907 169.516 293.702 167.613C293.65 167.54 293.579 167.482 293.496 167.448C293.413 167.413 293.322 167.403 293.234 167.419C293.145 167.435 293.063 167.475 292.997 167.536C292.93 167.597 292.883 167.675 292.86 167.762C290.551 176.653 291.711 185.401 291.711 185.401L308.747 175.562C308.037 173.105 307.449 170.658 306.951 168.254Z" fill="#407BFF"/>
<path opacity="0.6" d="M306.951 168.254C305.543 166.48 302.678 160.999 301.455 158.611C301.406 158.517 301.331 158.439 301.238 158.388C301.146 158.336 301.04 158.314 300.934 158.324C300.829 158.334 300.729 158.375 300.647 158.442C300.565 158.509 300.505 158.599 300.475 158.701C299.151 163.225 298.383 167.893 298.187 172.602C296.423 171.202 294.907 169.516 293.702 167.613C293.65 167.54 293.579 167.482 293.496 167.448C293.413 167.413 293.322 167.403 293.234 167.419C293.145 167.435 293.063 167.475 292.997 167.536C292.93 167.597 292.883 167.675 292.86 167.762C290.551 176.653 291.711 185.401 291.711 185.401L308.747 175.562C308.037 173.105 307.449 170.658 306.951 168.254Z" fill="white"/>
<path d="M305.753 349.21C306.966 342.846 310.732 337.011 316.02 333.286" stroke="#04D361" stroke-width="0.779" stroke-miterlimit="10"/>
<path d="M305.589 351C305.817 345.686 307.868 332.893 312.719 324.885" stroke="#04D361" stroke-width="0.779" stroke-miterlimit="10"/>
<path d="M305.662 350.343C306.501 340.865 306.428 330.391 304.95 320.986" stroke="#04D361" stroke-width="0.779" stroke-miterlimit="10"/>
<path d="M316.793 330.811L316.793 330.811C316.746 330.894 316.699 330.978 316.652 331.061C315.993 332.226 315.334 333.389 314.522 334.489C314.735 334.418 314.96 334.332 315.194 334.238C315.312 334.191 315.434 334.141 315.558 334.091C315.815 333.986 316.08 333.878 316.331 333.784C316.704 333.645 317.091 333.521 317.452 333.467L317.452 333.467C319.126 333.221 320.835 333.289 322.477 333.502L322.477 333.502C323.758 333.67 325.036 333.923 326.293 334.173C326.701 334.254 327.108 334.335 327.511 334.412C329.171 334.729 330.804 334.992 332.45 335.014L332.45 335.014C333.384 335.027 334.376 334.906 335.214 334.583C336.049 334.261 336.693 333.756 337.019 333.019L337.02 333.018C337.559 331.812 337.004 330.222 335.88 329.287L335.879 329.286C334.766 328.353 333.24 327.982 331.665 327.83L331.665 327.83C331.092 327.774 330.519 327.745 329.932 327.716C329.715 327.705 329.497 327.694 329.276 327.681C328.466 327.635 327.636 327.57 326.814 327.413L326.813 327.412C326.322 327.317 325.837 327.191 325.366 327.065C325.291 327.045 325.217 327.025 325.144 327.005C324.747 326.898 324.361 326.794 323.975 326.706C323.062 326.497 322.206 326.391 321.368 326.554L316.793 330.811ZM316.793 330.811L316.794 330.809M316.793 330.811L316.794 330.809M316.794 330.809C317.915 328.811 319.359 326.945 321.368 326.554L316.794 330.809Z" fill="#04D361" stroke="#04D361"/>
<path d="M312.107 326.007C312.732 325.484 313.324 324.836 313.937 324.143C314.017 324.053 314.096 323.963 314.176 323.872C314.913 323.036 315.687 322.157 316.547 321.472C318.904 319.588 321.759 318.133 324.835 317.895L312.107 326.007ZM312.107 326.007C312.138 325.827 312.185 325.618 312.249 325.381C312.468 324.575 312.856 323.547 313.3 322.485C313.973 320.877 314.75 319.246 315.223 318.253C315.376 317.934 315.496 317.68 315.572 317.515M312.107 326.007L315.572 317.515M315.572 317.515C315.572 317.515 315.572 317.515 315.572 317.516L315.118 317.306L315.572 317.514C315.572 317.515 315.572 317.515 315.572 317.515ZM340.001 312.23L340 312.229C339.352 311.134 338.032 310.513 336.646 310.304L340.001 312.23ZM340.001 312.23C340.501 313.07 340.528 314.097 340.185 315.086M340.001 312.23L340.185 315.086M340.185 315.086C339.841 316.077 339.138 316.983 338.257 317.541M340.185 315.086L338.257 317.541M338.257 317.541C336.447 318.688 334.122 318.77 331.841 318.517M338.257 317.541L331.841 318.517M331.841 318.517C331.18 318.444 330.544 318.35 329.899 318.254M331.841 318.517L329.899 318.254M329.899 318.254C329.409 318.182 328.913 318.109 328.397 318.043M329.899 318.254L328.397 318.043M328.397 318.043C327.234 317.895 326.044 317.799 324.836 317.894L328.397 318.043ZM312.085 326.594C312.085 326.594 312.085 326.593 312.085 326.592L312.085 326.594Z" fill="#04D361" stroke="#04D361"/>
<path d="M307.229 311.871L307.229 311.872C307.522 313.665 307.224 315.507 306.662 317.283C306.622 317.41 306.574 317.57 306.518 317.753C306.35 318.313 306.114 319.093 305.824 319.831C305.632 320.319 305.427 320.759 305.218 321.081C305.114 321.242 305.018 321.358 304.935 321.434C304.85 321.511 304.802 321.525 304.793 321.527L304.792 321.527C304.688 321.547 304.477 321.517 304.14 321.349C303.821 321.19 303.464 320.945 303.102 320.659C302.38 320.089 301.702 319.404 301.373 319.061C300.368 318.002 299.568 316.755 299.074 315.392L299.073 315.39C298.495 313.816 298.295 312.134 298.095 310.381C298.091 310.343 298.087 310.304 298.082 310.266C297.889 308.569 297.689 306.807 297.106 305.134L297.106 305.134C296.443 303.239 295.314 301.545 294.232 299.922C293.948 299.496 293.667 299.075 293.399 298.656C292.084 296.604 290.971 294.409 290.988 292.108C291.005 289.802 292.47 287.482 294.57 287.109L294.571 287.109C295.956 286.86 297.429 287.442 298.648 288.367L298.649 288.367C300.372 289.668 301.63 291.57 302.168 293.671C302.491 294.942 302.554 296.265 302.616 297.647L302.618 297.703C302.679 299.05 302.741 300.455 303.079 301.821C303.498 303.534 304.329 305.106 305.126 306.612C305.186 306.727 305.247 306.841 305.307 306.955C306.168 308.589 306.952 310.159 307.229 311.871Z" fill="#04D361" stroke="#04D361"/>
<path d="M305.57 349.448C304.95 341.075 302.798 331.615 298.121 324.648" stroke="#04D361" stroke-width="0.779" stroke-miterlimit="10"/>
<path d="M296.993 318.35L296.993 318.352C297.663 320.22 298.076 322.177 298.421 324.15L298.422 324.151C298.44 324.255 298.472 324.389 298.503 324.52C298.515 324.571 298.526 324.621 298.537 324.67C298.581 324.859 298.62 325.052 298.642 325.236C298.663 325.424 298.662 325.573 298.64 325.681C298.62 325.785 298.589 325.81 298.58 325.816L298.58 325.816C298.576 325.82 298.539 325.847 298.411 325.828C298.282 325.808 298.116 325.749 297.925 325.65C297.546 325.456 297.175 325.165 296.987 324.998C296.651 324.69 296.353 324.334 296.054 323.946C295.949 323.809 295.839 323.663 295.728 323.514C295.535 323.258 295.336 322.992 295.135 322.744L295.135 322.744C292.423 319.41 288.14 317.806 284.003 317.213C281.933 316.917 279.851 316.839 277.785 316.805C277.239 316.797 276.695 316.791 276.153 316.785C274.634 316.77 273.128 316.754 271.622 316.67L271.619 316.67C270.682 316.624 269.838 316.522 269.213 316.078C268.397 315.494 268.057 314.299 268.307 313.209C268.556 312.131 269.299 311.177 270.215 310.39L270.215 310.39C272.238 308.651 274.925 307.774 277.636 307.597C280.348 307.419 283.087 307.907 285.762 308.631L285.762 308.631C288.34 309.328 290.853 310.264 292.829 311.927C294.783 313.578 296.118 315.884 296.993 318.35ZM298.986 324.389C298.956 324.264 298.93 324.153 298.914 324.063L296.652 325.369C297.063 325.735 298.285 326.657 298.877 326.218C299.336 325.879 299.125 324.98 298.986 324.389Z" fill="#04D361" stroke="#04D361"/>
<path d="M305.397 350.343C305.033 343.038 301.75 335.916 296.443 330.894" stroke="#04D361" stroke-width="0.779" stroke-miterlimit="10"/>
<path d="M297.511 331.408C297.296 331.019 297.077 330.542 296.882 330.117C296.688 329.696 296.518 329.325 296.397 329.14M297.511 331.408L287.835 324.392C289.887 324.968 292.011 325.616 293.899 326.62L293.899 326.62C294.036 326.693 294.172 326.766 294.309 326.849C295.23 327.369 295.823 328.264 296.397 329.14M297.511 331.408C297.29 331.334 297.067 331.266 296.841 331.204M297.511 331.408L297.173 331.823M296.397 329.14L295.979 329.414M296.397 329.14L295.979 329.414C295.979 329.414 295.979 329.414 295.979 329.414M296.841 331.204C296.949 331.42 297.06 331.633 297.173 331.823M296.841 331.204C294.373 330.528 291.657 330.553 289.281 330.576L289.253 330.576M296.841 331.204C296.807 331.135 296.773 331.065 296.74 330.996C296.631 330.77 296.524 330.536 296.425 330.32C296.378 330.218 296.333 330.119 296.29 330.028C296.15 329.727 296.046 329.517 295.979 329.414M297.173 331.823C294.667 331.028 291.819 331.052 289.257 331.076C286.066 331.104 282.874 331.697 279.893 332.848C279.514 332.995 279.137 333.152 278.759 333.309C277.271 333.928 275.775 334.55 274.175 334.637C273.063 334.692 271.732 334.327 271.394 333.259L297.173 331.823ZM289.253 330.576L287.7 324.874C289.751 325.449 291.829 326.085 293.664 327.062L293.898 326.621L293.663 327.061C293.802 327.135 293.927 327.202 294.052 327.277L294.051 327.277L294.063 327.284C294.861 327.735 295.393 328.52 295.979 329.414M289.253 330.576C289.253 330.576 289.253 330.576 289.253 330.576L289.257 331.075L289.253 330.576ZM281.83 324.153C283.719 323.786 285.692 324.311 287.7 324.874L281.83 324.153ZM274.149 334.138C273.65 334.162 273.118 334.091 272.689 333.909C272.265 333.729 271.983 333.462 271.872 333.11C271.696 332.535 272 331.853 272.515 331.166L272.515 331.166L272.516 331.164C273.534 329.793 274.848 328.669 276.205 327.512C277.973 326.009 279.727 324.562 281.83 324.153L274.149 334.138Z" fill="#04D361" stroke="#04D361"/>
<path d="M527.582 320.672L527.582 320.671C529.089 319.17 529.766 317.087 530.381 315.192C530.468 314.925 530.553 314.661 530.64 314.404C531.36 312.259 532.383 310.159 534.204 309.28C536.312 308.266 538.757 309.246 540.846 310.592C541.084 310.746 541.326 310.906 541.572 311.068C542.383 311.603 543.236 312.165 544.116 312.615C545.277 313.207 546.54 313.634 547.937 313.585C549.044 313.545 550.11 313.204 551.102 312.88L551.175 312.856C552.162 312.534 553.079 312.235 554.009 312.168C556.62 311.992 558.888 313.665 561.055 315.418L561.055 315.419C562.627 316.687 564.11 317.953 564.598 319.728L564.599 319.728C565.189 321.872 564.098 324.45 562.234 326.005L562.233 326.006C560.378 327.563 557.912 328.21 555.513 328.263L555.512 328.263C555.223 328.27 554.92 328.272 554.608 328.273C553.754 328.277 552.836 328.281 551.978 328.401C550.785 328.568 549.605 328.968 548.707 329.962L548.706 329.962C547.83 330.932 547.53 332.152 547.309 333.294C547.274 333.476 547.241 333.655 547.208 333.832C547.028 334.806 546.862 335.705 546.453 336.506C545.479 338.399 543.19 339.421 541.046 339.412C538.907 339.403 536.891 338.594 534.821 337.763L534.765 337.74C532.706 336.914 530.458 336.047 528.056 336.153C525.835 336.249 523.704 337.177 521.696 338.051C521.307 338.221 520.923 338.388 520.544 338.547L520.543 338.547C519.507 338.983 518.075 339.571 516.712 339.796C515.327 340.025 514.21 339.851 513.576 339.016L513.574 339.014C513.294 338.649 513.143 338.139 513.113 337.497C513.083 336.857 513.176 336.127 513.343 335.367C513.668 333.893 514.255 332.391 514.662 331.345C514.676 331.312 514.688 331.278 514.701 331.246C515.788 328.472 517.597 325.89 520.101 324.458C520.987 323.952 521.942 323.593 522.935 323.22C523.248 323.103 523.565 322.984 523.884 322.858C525.19 322.346 526.511 321.733 527.582 320.672Z" fill="#04D361" stroke="#04D361"/>
<path d="M513.615 339.072C525.752 328.635 539.913 321.723 555.196 318.783" stroke="white" stroke-width="0.7047" stroke-miterlimit="10" stroke-linecap="round" stroke-linejoin="round"/>
<path d="M525.615 323.02C525.898 319.577 525.251 315.989 526.381 312.729C528.396 306.921 535.381 303.89 537.132 298C539.229 290.96 532.828 283.774 533.941 276.515C534.406 273.456 536.166 270.762 537.26 267.868C538.354 264.973 538.637 261.348 536.512 259.093C534.287 256.737 530.248 257.011 527.603 258.892C524.959 260.773 523.436 263.823 522.196 266.827C520.965 269.831 519.88 272.972 517.792 275.465C513.989 280.003 507.15 281.994 505.071 287.536C502.956 293.179 506.959 299.151 507.67 305.132C508.208 309.661 506.831 314.172 505.6 318.573C504.378 322.974 503.293 327.631 504.415 332.05C505.91 337.94 511.208 341.693 516.287 337.912C521.311 334.196 525.096 329.493 525.615 323.02Z" fill="#04D361"/>
<path d="M513.068 339.355C511.053 318.335 515.667 295.535 526.445 277.383" stroke="white" stroke-width="1.1364" stroke-miterlimit="10" stroke-linecap="round" stroke-linejoin="round"/>
<path d="M499.646 331.429C497.43 328.297 496.162 324.38 493.153 321.997C489.706 319.257 484.928 319.23 480.551 318.874C476.165 318.518 471.223 317.276 469.19 313.368C468.077 311.222 468.077 308.675 467.302 306.392C466.445 303.881 464.694 301.799 463.463 299.452C462.241 297.105 461.594 294.12 463.016 291.882C464.457 289.618 467.612 288.951 470.193 289.682C472.773 290.412 474.889 292.229 476.822 294.092C478.755 295.955 480.643 297.946 483.023 299.169C486.971 301.187 491.658 300.813 496.089 300.621C500.521 300.438 505.354 300.621 508.783 303.452C511.6 305.78 512.886 309.442 514.035 312.92C515.694 317.897 517.39 322.855 519.004 327.85C519.998 330.918 521.895 335.62 518.704 338.031C513.077 342.277 502.892 336.004 499.646 331.429Z" fill="#04D361"/>
<path d="M516.925 338.214C509.886 321.851 494.986 307.917 477.15 301.771" stroke="white" stroke-width="0.8174" stroke-miterlimit="10" stroke-linecap="round" stroke-linejoin="round"/>
<path d="M111.359 337.462C113.374 334.458 114.541 330.605 117.249 328.404C120.359 325.893 124.635 326.222 128.574 326.176C132.505 326.14 136.945 325.254 138.805 321.456C139.827 319.374 139.836 316.799 140.556 314.543C141.34 312.069 142.927 310.097 144.049 307.814C145.161 305.531 145.763 302.563 144.514 300.198C143.237 297.806 140.419 296.902 138.103 297.45C135.787 297.998 133.872 299.678 132.131 301.413C130.389 303.148 128.684 305.02 126.532 306.079C122.976 307.832 118.781 307.102 114.805 306.581C110.83 306.07 106.498 305.905 103.407 308.508C100.863 310.653 99.6868 314.26 98.6199 317.684C97.0971 322.588 95.5378 327.473 94.0515 332.395C93.1396 335.426 91.398 340.028 94.243 342.704C99.2308 347.433 108.413 341.845 111.359 337.462Z" fill="#04D361"/>
<path d="M95.8204 343.051C102.258 327.035 115.717 314.059 131.748 309.156" stroke="white" stroke-width="0.7781" stroke-miterlimit="10" stroke-linecap="round" stroke-linejoin="round"/>
<path d="M86.9938 329.053C86.7749 325.884 87.2856 322.588 86.3828 319.584C84.7688 314.242 79.17 311.457 77.7658 306.042C76.088 299.568 81.2126 292.958 80.3281 286.274C79.9542 283.461 78.5408 280.987 77.6655 278.32C76.7901 275.654 76.5621 272.321 78.2673 270.249C80.0545 268.075 83.2825 268.331 85.4071 270.066C87.5226 271.801 88.7445 274.604 89.7385 277.362C90.7233 280.119 91.5986 283.014 93.2673 285.306C96.313 289.479 101.793 291.305 103.453 296.409C105.149 301.605 101.939 307.092 101.374 312.599C100.945 316.771 102.049 320.917 103.033 324.962C104.018 329.007 104.884 333.29 103.982 337.362C102.787 342.777 98.5379 346.228 94.471 342.758C90.4497 339.334 87.4132 335.006 86.9938 329.053Z" fill="#04D361"/>
<path d="M97.0423 344.073C98.6563 324.743 94.9542 303.769 86.328 287.068" stroke="white" stroke-width="0.9754" stroke-miterlimit="10" stroke-linecap="round" stroke-linejoin="round"/>
<path d="M35.2001 313.594C34.4615 316.762 35.9934 320.588 38.4098 322.962C40.8263 325.346 43.963 326.45 46.9448 326.715L54.7503 329.29L55.1443 328.982C55.1442 328.982 55.1441 328.982 55.144 328.982C54.0833 327.624 52.6907 326.998 51.2498 326.679C50.2109 326.449 49.1019 326.372 48.0674 326.3C47.6964 326.274 47.3351 326.249 46.99 326.217L46.989 326.217C44.0938 325.96 41.076 324.89 38.7609 322.606L38.7602 322.606C36.4324 320.319 34.9983 316.662 35.687 313.708M35.2001 313.594L35.6869 313.708C35.6869 313.708 35.6869 313.708 35.687 313.708M35.2001 313.594L35.687 313.707C35.687 313.707 35.687 313.708 35.687 313.708M35.2001 313.594C35.811 310.991 37.7351 309.275 39.5679 307.713C42.112 305.54 44.9843 303.267 48.4038 303.751M35.687 313.708C36.2557 311.286 38.0473 309.666 39.8921 308.094L39.8926 308.094C42.4677 305.894 45.1705 303.798 48.3337 304.246L48.3345 304.246C49.4717 304.405 50.5983 304.886 51.8004 305.399C51.8258 305.41 51.8512 305.421 51.8766 305.432C53.0787 305.945 54.3604 306.485 55.6836 306.622M55.6836 306.622C57.3557 306.795 58.8621 306.318 60.2444 305.61C61.292 305.073 62.3029 304.382 63.2673 303.724C63.5615 303.523 63.8514 303.325 64.1367 303.135L64.1377 303.134C66.6181 301.475 69.5593 300.326 72.1757 301.879M55.6836 306.622L55.7351 306.125L55.6837 306.622C55.6836 306.622 55.6836 306.622 55.6836 306.622ZM48.4038 303.751L48.4038 303.751L48.4038 303.751ZM48.4038 303.751C49.608 303.919 50.7886 304.423 51.9675 304.927C53.2166 305.46 54.4638 305.993 55.7351 306.125C58.4512 306.406 60.7495 304.837 62.9669 303.323C63.2657 303.119 63.5631 302.916 63.8598 302.719C66.3583 301.048 69.5406 299.733 72.4312 301.45M72.4312 301.45L72.1749 301.879C72.1752 301.879 72.1754 301.879 72.1757 301.879M72.4312 301.45L72.1759 301.879C72.1759 301.879 72.1758 301.879 72.1757 301.879M72.4312 301.45C74.8932 302.92 76.2519 306.097 77.1638 309.056L80.47 317.811M72.1757 301.879C73.3057 302.554 74.207 303.637 74.9435 304.94C75.6795 306.243 76.2346 307.739 76.686 309.203L76.6864 309.204C76.7997 309.568 76.9115 309.939 77.0244 310.313C77.8118 312.923 78.6555 315.719 80.47 317.811M80.47 317.811C81.7582 319.303 83.3399 320.222 84.927 321.015C85.3151 321.209 85.701 321.394 86.0832 321.578C87.2876 322.156 88.4563 322.718 89.5443 323.473L89.5449 323.474C92.646 325.62 94.9129 329.294 96.2977 333.165C96.3159 333.216 96.3345 333.268 96.3534 333.321C96.8658 334.759 97.6074 336.839 98.036 338.867C98.258 339.918 98.3914 340.934 98.3705 341.825C98.3496 342.722 98.1733 343.441 97.8256 343.944L97.8244 343.946C97.0647 345.054 95.7107 345.2 94.0268 344.783C92.3665 344.372 90.6132 343.462 89.3529 342.792L89.3526 342.792C88.9004 342.552 88.442 342.301 87.9795 342.048C86.9795 341.501 85.9599 340.943 84.9404 340.461C83.4397 339.751 81.885 339.175 80.2748 338.993L80.2747 338.993C77.391 338.666 74.7013 339.658 72.2398 340.622L72.1666 340.651C69.6995 341.617 67.292 342.56 64.7029 342.396C62.1102 342.233 59.2549 340.675 57.9855 337.938L80.47 317.811ZM80.47 317.811L80.8477 317.484L80.4692 317.81C80.4695 317.811 80.4697 317.811 80.47 317.811ZM89.1182 343.233C88.6538 342.987 88.1889 342.733 87.723 342.478C85.2712 341.137 82.7931 339.781 80.2185 339.489C77.4738 339.179 74.8932 340.12 72.4221 341.087L72.3033 341.134C69.8697 342.087 67.3721 343.066 64.6713 342.895C61.9266 342.722 58.8902 341.078 57.5315 338.147L89.1182 343.233ZM89.1182 343.233C91.6258 344.566 96.3401 346.995 98.2368 344.229L89.1182 343.233Z" fill="#04D361" stroke="#04D361"/>
<path d="M97.6989 343.854C82.8265 328.824 65.5833 318.397 47.0908 313.247" stroke="white" stroke-width="0.8986" stroke-miterlimit="10" stroke-linecap="round" stroke-linejoin="round"/>
<path d="M523.847 71.5967C523.847 74.4913 521.504 76.8379 518.613 76.8379C515.723 76.8379 513.379 74.4913 513.379 71.5967C513.379 68.7022 515.723 66.3555 518.613 66.3555C521.495 66.3555 523.847 68.7022 523.847 71.5967Z" stroke="#04D361" stroke-width="2" stroke-miterlimit="10" stroke-linecap="round" stroke-linejoin="round"/>
<path d="M522.397 75.2126L526.09 78.9192" stroke="#04D361" stroke-width="2" stroke-miterlimit="10" stroke-linecap="round" stroke-linejoin="round"/>
<path d="M319.068 1L324.575 6.51422" stroke="#04D361" stroke-width="2" stroke-miterlimit="10" stroke-linecap="round" stroke-linejoin="round"/>
<path d="M324.575 1L319.068 6.51422" stroke="#04D361" stroke-width="2" stroke-miterlimit="10" stroke-linecap="round" stroke-linejoin="round"/>
<path d="M397.995 318.459L403.501 323.974" stroke="#04D361" stroke-width="2" stroke-miterlimit="10" stroke-linecap="round" stroke-linejoin="round"/>
<path d="M403.501 318.459L397.995 323.974" stroke="#04D361" stroke-width="2" stroke-miterlimit="10" stroke-linecap="round" stroke-linejoin="round"/>
<path d="M48.5352 245.386V253.184" stroke="#04D361" stroke-width="2" stroke-miterlimit="10" stroke-linecap="round" stroke-linejoin="round"/>
<path d="M52.4387 249.284H44.6423" stroke="#04D361" stroke-width="2" stroke-miterlimit="10" stroke-linecap="round" stroke-linejoin="round"/>
<path d="M31.5992 185.515C31.5992 188.126 29.4837 190.254 26.8667 190.254C24.2588 190.254 22.1342 188.136 22.1342 185.515C22.1342 182.903 24.2497 180.776 26.8667 180.776C29.4837 180.785 31.5992 182.903 31.5992 185.515Z" stroke="#04D361" stroke-width="2" stroke-miterlimit="10" stroke-linecap="round" stroke-linejoin="round"/>
<path d="M228.027 300.134C228.027 302.746 225.911 304.873 223.294 304.873C220.686 304.873 218.562 302.755 218.562 300.134C218.562 297.523 220.677 295.395 223.294 295.395C225.911 295.404 228.027 297.523 228.027 300.134Z" stroke="#04D361" stroke-width="2" stroke-miterlimit="10" stroke-linecap="round" stroke-linejoin="round"/>
<path d="M540.339 214.786C540.339 217.398 538.224 219.525 535.607 219.525C532.999 219.525 530.874 217.407 530.874 214.786C530.874 212.175 532.99 210.047 535.607 210.047C538.224 210.056 540.339 212.175 540.339 214.786Z" stroke="#04D361" stroke-width="2" stroke-miterlimit="10" stroke-linecap="round" stroke-linejoin="round"/>
<path d="M2.928 102.464C2.928 103.137 2.38383 103.68 1.714 103.68C1.04417 103.68 0.5 103.137 0.5 102.464C0.5 101.792 1.04417 101.248 1.714 101.248C2.38383 101.248 2.928 101.792 2.928 102.464Z" fill="#7C71F5" stroke="#7C71F5"/>
<path d="M14.9008 102.464C14.9008 103.137 14.3566 103.68 13.6868 103.68C13.0169 103.68 12.4728 103.137 12.4728 102.464C12.4728 101.792 13.017 101.248 13.6868 101.248C14.3566 101.248 14.9008 101.792 14.9008 102.464Z" fill="#7C71F5" stroke="#7C71F5"/>
<path d="M26.8644 102.464C26.8644 103.137 26.3202 103.68 25.6504 103.68C24.9806 103.68 24.4364 103.137 24.4364 102.464C24.4364 101.792 24.9806 101.248 25.6504 101.248C26.3202 101.248 26.8644 101.792 26.8644 102.464Z" fill="#7C71F5" stroke="#7C71F5"/>
<path d="M38.8371 102.464C38.8371 103.137 38.2929 103.68 37.6231 103.68C36.9532 103.68 36.4091 103.137 36.4091 102.464C36.4091 101.792 36.9532 101.248 37.6231 101.248C38.2929 101.248 38.8371 101.792 38.8371 102.464Z" fill="#7C71F5" stroke="#7C71F5"/>
<path d="M50.8005 102.464C50.8005 103.137 50.2564 103.68 49.5866 103.68C48.9167 103.68 48.3726 103.137 48.3726 102.464C48.3726 101.792 48.9167 101.248 49.5866 101.248C50.2564 101.248 50.8005 101.792 50.8005 102.464Z" fill="#7C71F5" stroke="#7C71F5"/>
<path d="M62.7732 102.464C62.7732 103.137 62.229 103.68 61.5592 103.68C60.8894 103.68 60.3452 103.137 60.3452 102.464C60.3452 101.792 60.8894 101.248 61.5592 101.248C62.229 101.248 62.7732 101.792 62.7732 102.464Z" fill="#7C71F5" stroke="#7C71F5"/>
<path d="M2.928 114.444C2.928 115.117 2.38383 115.66 1.714 115.66C1.04417 115.66 0.5 115.117 0.5 114.444C0.5 113.772 1.04417 113.228 1.714 113.228C2.38383 113.228 2.928 113.772 2.928 114.444Z" fill="#7C71F5" stroke="#7C71F5"/>
<path d="M14.9008 114.444C14.9008 115.117 14.3566 115.66 13.6868 115.66C13.0169 115.66 12.4728 115.117 12.4728 114.444C12.4728 113.772 13.0169 113.228 13.6868 113.228C14.3566 113.228 14.9008 113.772 14.9008 114.444Z" fill="#7C71F5" stroke="#7C71F5"/>
<path d="M26.8644 114.444C26.8644 115.117 26.3202 115.66 25.6504 115.66C24.9806 115.66 24.4364 115.117 24.4364 114.444C24.4364 113.772 24.9806 113.228 25.6504 113.228C26.3202 113.228 26.8644 113.772 26.8644 114.444Z" fill="#7C71F5" stroke="#7C71F5"/>
<path d="M38.8371 114.444C38.8371 115.117 38.2929 115.66 37.6231 115.66C36.9532 115.66 36.4091 115.117 36.4091 114.444C36.4091 113.772 36.9532 113.228 37.6231 113.228C38.2929 113.228 38.8371 113.772 38.8371 114.444Z" fill="#7C71F5" stroke="#7C71F5"/>
<path d="M50.8005 114.444C50.8005 115.117 50.2564 115.66 49.5866 115.66C48.9167 115.66 48.3726 115.117 48.3726 114.444C48.3726 113.772 48.9167 113.228 49.5866 113.228C50.2564 113.228 50.8005 113.772 50.8005 114.444Z" fill="#7C71F5" stroke="#7C71F5"/>
<path d="M62.7732 114.444C62.7732 115.117 62.229 115.66 61.5592 115.66C60.8894 115.66 60.3452 115.117 60.3452 114.444C60.3452 113.772 60.8894 113.228 61.5592 113.228C62.229 113.228 62.7732 113.772 62.7732 114.444Z" fill="#7C71F5" stroke="#7C71F5"/>
<path d="M2.928 126.433C2.928 127.106 2.38383 127.649 1.714 127.649C1.04417 127.649 0.5 127.106 0.5 126.433C0.5 125.761 1.04417 125.217 1.714 125.217C2.38383 125.217 2.928 125.761 2.928 126.433Z" fill="#7C71F5" stroke="#7C71F5"/>
<path d="M14.9008 126.433C14.9008 127.106 14.3566 127.649 13.6868 127.649C13.0169 127.649 12.4728 127.106 12.4728 126.433C12.4728 125.761 13.017 125.217 13.6868 125.217C14.3566 125.217 14.9008 125.761 14.9008 126.433Z" fill="#7C71F5" stroke="#7C71F5"/>
<path d="M26.8644 126.433C26.8644 127.106 26.3202 127.649 25.6504 127.649C24.9806 127.649 24.4364 127.106 24.4364 126.433C24.4364 125.761 24.9806 125.217 25.6504 125.217C26.3202 125.217 26.8644 125.761 26.8644 126.433Z" fill="#7C71F5" stroke="#7C71F5"/>
<path d="M38.8371 126.433C38.8371 127.106 38.2929 127.649 37.6231 127.649C36.9532 127.649 36.4091 127.106 36.4091 126.433C36.4091 125.761 36.9532 125.217 37.6231 125.217C38.2929 125.217 38.8371 125.761 38.8371 126.433Z" fill="#7C71F5" stroke="#7C71F5"/>
<path d="M50.8005 126.433C50.8005 127.106 50.2564 127.649 49.5866 127.649C48.9167 127.649 48.3726 127.106 48.3726 126.433C48.3726 125.761 48.9167 125.217 49.5866 125.217C50.2564 125.217 50.8005 125.761 50.8005 126.433Z" fill="#7C71F5" stroke="#7C71F5"/>
<path d="M62.7732 126.433C62.7732 127.106 62.229 127.649 61.5592 127.649C60.8894 127.649 60.3452 127.106 60.3452 126.433C60.3452 125.761 60.8894 125.217 61.5592 125.217C62.229 125.217 62.7732 125.761 62.7732 126.433Z" fill="#7C71F5" stroke="#7C71F5"/>
<path d="M2.928 138.413C2.928 139.086 2.38383 139.629 1.714 139.629C1.04417 139.629 0.5 139.086 0.5 138.413C0.5 137.741 1.04417 137.197 1.714 137.197C2.38383 137.197 2.928 137.741 2.928 138.413Z" fill="#7C71F5" stroke="#7C71F5"/>
<path d="M14.9008 138.413C14.9008 139.086 14.3566 139.629 13.6868 139.629C13.017 139.629 12.4728 139.086 12.4728 138.413C12.4728 137.741 13.017 137.197 13.6868 137.197C14.3566 137.197 14.9008 137.741 14.9008 138.413Z" fill="#7C71F5" stroke="#7C71F5"/>
<path d="M26.8644 138.413C26.8644 139.086 26.3202 139.629 25.6504 139.629C24.9806 139.629 24.4364 139.086 24.4364 138.413C24.4364 137.741 24.9806 137.197 25.6504 137.197C26.3202 137.197 26.8644 137.741 26.8644 138.413Z" fill="#7C71F5" stroke="#7C71F5"/>
<path d="M38.8371 138.413C38.8371 139.086 38.2929 139.629 37.6231 139.629C36.9532 139.629 36.4091 139.086 36.4091 138.413C36.4091 137.741 36.9532 137.197 37.6231 137.197C38.2929 137.197 38.8371 137.741 38.8371 138.413Z" fill="#7C71F5" stroke="#7C71F5"/>
<path d="M50.8005 138.413C50.8005 139.086 50.2564 139.629 49.5866 139.629C48.9167 139.629 48.3726 139.086 48.3726 138.413C48.3726 137.741 48.9167 137.197 49.5866 137.197C50.2564 137.197 50.8005 137.741 50.8005 138.413Z" fill="#7C71F5" stroke="#7C71F5"/>
<path d="M62.7732 138.413C62.7732 139.086 62.229 139.629 61.5592 139.629C60.8894 139.629 60.3452 139.086 60.3452 138.413C60.3452 137.741 60.8894 137.197 61.5592 137.197C62.229 137.197 62.7732 137.741 62.7732 138.413Z" fill="#7C71F5" stroke="#7C71F5"/>
<path d="M187.624 328.189C187.624 328.862 187.08 329.406 186.41 329.406C185.74 329.406 185.196 328.862 185.196 328.189C185.196 327.517 185.74 326.973 186.41 326.973C187.08 326.973 187.624 327.517 187.624 328.189Z" fill="#7C71F5" stroke="#7C71F5"/>
<path d="M199.596 328.189C199.596 328.862 199.052 329.406 198.382 329.406C197.713 329.406 197.168 328.862 197.168 328.189C197.168 327.517 197.713 326.973 198.382 326.973C199.052 326.973 199.596 327.517 199.596 328.189Z" fill="#7C71F5" stroke="#7C71F5"/>
<path d="M211.56 328.189C211.56 328.862 211.016 329.406 210.346 329.406C209.676 329.406 209.132 328.862 209.132 328.189C209.132 327.517 209.676 326.973 210.346 326.973C211.016 326.973 211.56 327.517 211.56 328.189Z" fill="#7C71F5" stroke="#7C71F5"/>
<path d="M223.533 328.189C223.533 328.862 222.988 329.406 222.319 329.406C221.649 329.406 221.105 328.862 221.105 328.189C221.105 327.517 221.649 326.973 222.319 326.973C222.988 326.973 223.533 327.517 223.533 328.189Z" fill="#7C71F5" stroke="#7C71F5"/>
<path d="M235.496 328.189C235.496 328.862 234.952 329.406 234.282 329.406C233.612 329.406 233.068 328.862 233.068 328.189C233.068 327.517 233.612 326.973 234.282 326.973C234.952 326.973 235.496 327.517 235.496 328.189Z" fill="#7C71F5" stroke="#7C71F5"/>
<path d="M187.624 340.178C187.624 340.851 187.08 341.395 186.41 341.395C185.74 341.395 185.196 340.851 185.196 340.178C185.196 339.506 185.74 338.962 186.41 338.962C187.08 338.962 187.624 339.506 187.624 340.178Z" fill="#7C71F5" stroke="#7C71F5"/>
<path d="M199.596 340.178C199.596 340.851 199.052 341.395 198.382 341.395C197.713 341.395 197.168 340.851 197.168 340.178C197.168 339.506 197.713 338.962 198.382 338.962C199.052 338.962 199.596 339.506 199.596 340.178Z" fill="#7C71F5" stroke="#7C71F5"/>
<path d="M211.56 340.178C211.56 340.851 211.016 341.395 210.346 341.395C209.676 341.395 209.132 340.851 209.132 340.178C209.132 339.506 209.676 338.962 210.346 338.962C211.016 338.962 211.56 339.506 211.56 340.178Z" fill="#7C71F5" stroke="#7C71F5"/>
<path d="M223.533 340.178C223.533 340.851 222.988 341.395 222.319 341.395C221.649 341.395 221.105 340.851 221.105 340.178C221.105 339.506 221.649 338.962 222.319 338.962C222.988 338.962 223.533 339.506 223.533 340.178Z" fill="#7C71F5" stroke="#7C71F5"/>
<path d="M235.496 340.178C235.496 340.851 234.952 341.395 234.282 341.395C233.612 341.395 233.068 340.851 233.068 340.178C233.068 339.506 233.612 338.962 234.282 338.962C234.952 338.962 235.496 339.506 235.496 340.178Z" fill="#7C71F5" stroke="#7C71F5"/>
<path d="M490.93 28.3977C490.93 29.0702 490.386 29.6141 489.716 29.6141C489.046 29.6141 488.502 29.0701 488.502 28.3977C488.502 27.7253 489.046 27.1814 489.716 27.1814C490.386 27.1814 490.93 27.7253 490.93 28.3977Z" fill="#7C71F5" stroke="#7C71F5"/>
<path d="M502.894 28.3977C502.894 29.0702 502.35 29.6141 501.68 29.6141C501.01 29.6141 500.466 29.0702 500.466 28.3977C500.466 27.7253 501.01 27.1814 501.68 27.1814C502.35 27.1814 502.894 27.7253 502.894 28.3977Z" fill="#7C71F5" stroke="#7C71F5"/>
<path d="M514.866 28.3977C514.866 29.0702 514.322 29.6141 513.653 29.6141C512.983 29.6141 512.439 29.0702 512.439 28.3977C512.439 27.7253 512.983 27.1814 513.653 27.1814C514.322 27.1814 514.866 27.7253 514.866 28.3977Z" fill="#7C71F5" stroke="#7C71F5"/>
<path d="M490.93 40.3868C490.93 41.0592 490.386 41.6031 489.716 41.6031C489.046 41.6031 488.502 41.0592 488.502 40.3868C488.502 39.7143 489.046 39.1704 489.716 39.1704C490.386 39.1704 490.93 39.7143 490.93 40.3868Z" fill="#7C71F5" stroke="#7C71F5"/>
<path d="M502.894 40.3868C502.894 41.0592 502.35 41.6031 501.68 41.6031C501.01 41.6031 500.466 41.0592 500.466 40.3868C500.466 39.7143 501.01 39.1704 501.68 39.1704C502.35 39.1704 502.894 39.7143 502.894 40.3868Z" fill="#7C71F5" stroke="#7C71F5"/>
<path d="M514.866 40.3868C514.866 41.0592 514.322 41.6031 513.652 41.6031C512.983 41.6031 512.438 41.0592 512.438 40.3868C512.438 39.7143 512.983 39.1704 513.652 39.1704C514.322 39.1704 514.866 39.7143 514.866 40.3868Z" fill="#7C71F5" stroke="#7C71F5"/>
<path d="M177.582 5.71634C177.582 6.38877 177.038 6.93268 176.368 6.93268C175.698 6.93268 175.154 6.38875 175.154 5.71634C175.154 5.04394 175.698 4.5 176.368 4.5C177.038 4.5 177.582 5.04392 177.582 5.71634Z" fill="#7C71F5" stroke="#7C71F5"/>
<path d="M189.546 5.71634C189.546 6.38875 189.002 6.93268 188.332 6.93268C187.662 6.93268 187.118 6.38875 187.118 5.71634C187.118 5.04393 187.662 4.5 188.332 4.5C189.002 4.5 189.546 5.04393 189.546 5.71634Z" fill="#7C71F5" stroke="#7C71F5"/>
<path d="M201.518 5.71634C201.518 6.38878 200.974 6.93268 200.304 6.93268C199.635 6.93268 199.09 6.38875 199.09 5.71634C199.09 5.04393 199.635 4.5 200.304 4.5C200.974 4.5 201.518 5.04391 201.518 5.71634Z" fill="#7C71F5" stroke="#7C71F5"/>
<path d="M177.582 17.7054C177.582 18.3778 177.038 18.9217 176.368 18.9217C175.698 18.9217 175.154 18.3778 175.154 17.7054C175.154 17.033 175.698 16.489 176.368 16.489C177.038 16.489 177.582 17.0329 177.582 17.7054Z" fill="#7C71F5" stroke="#7C71F5"/>
<path d="M189.546 17.7054C189.546 18.3778 189.001 18.9217 188.332 18.9217C187.662 18.9217 187.118 18.3778 187.118 17.7054C187.118 17.0329 187.662 16.489 188.332 16.489C189.002 16.489 189.546 17.0329 189.546 17.7054Z" fill="#7C71F5" stroke="#7C71F5"/>
<path d="M201.518 17.7054C201.518 18.3778 200.974 18.9217 200.304 18.9217C199.635 18.9217 199.09 18.3778 199.09 17.7054C199.09 17.0329 199.635 16.489 200.304 16.489C200.974 16.489 201.518 17.0329 201.518 17.7054Z" fill="#7C71F5" stroke="#7C71F5"/>
<path d="M598.5 190.4C598.5 191.072 597.956 191.616 597.286 191.616C596.616 191.616 596.072 191.072 596.072 190.4C596.072 189.728 596.616 189.184 597.286 189.184C597.956 189.184 598.5 189.728 598.5 190.4Z" fill="#7C71F5" stroke="#7C71F5"/>
<path d="M598.5 202.389C598.5 203.061 597.956 203.605 597.286 203.605C596.616 203.605 596.072 203.061 596.072 202.389C596.072 201.717 596.616 201.173 597.286 201.173C597.956 201.173 598.5 201.717 598.5 202.389Z" fill="#7C71F5" stroke="#7C71F5"/>
<path d="M598.5 214.369C598.5 215.041 597.956 215.585 597.286 215.585C596.616 215.585 596.072 215.041 596.072 214.369C596.072 213.697 596.616 213.153 597.286 213.153C597.956 213.153 598.5 213.697 598.5 214.369Z" fill="#7C71F5" stroke="#7C71F5"/>
<path d="M598.5 226.358C598.5 227.031 597.956 227.575 597.286 227.575C596.616 227.575 596.072 227.031 596.072 226.358C596.072 225.686 596.616 225.142 597.286 225.142C597.956 225.142 598.5 225.686 598.5 226.358Z" fill="#7C71F5" stroke="#7C71F5"/>
<path d="M598.5 238.338C598.5 239.011 597.956 239.555 597.286 239.555C596.616 239.555 596.072 239.011 596.072 238.338C596.072 237.666 596.616 237.122 597.286 237.122C597.956 237.122 598.5 237.666 598.5 238.338Z" fill="#7C71F5" stroke="#7C71F5"/>
<path d="M598.5 250.327C598.5 251 597.956 251.544 597.286 251.544C596.616 251.544 596.072 251 596.072 250.327C596.072 249.655 596.616 249.111 597.286 249.111C597.956 249.111 598.5 249.655 598.5 250.327Z" fill="#7C71F5" stroke="#7C71F5"/>
<path d="M598.5 262.307C598.5 262.98 597.956 263.524 597.286 263.524C596.616 263.524 596.072 262.98 596.072 262.307C596.072 261.635 596.616 261.091 597.286 261.091C597.956 261.091 598.5 261.635 598.5 262.307Z" fill="#7C71F5" stroke="#7C71F5"/>
<path d="M586.527 190.4C586.527 191.072 585.983 191.616 585.313 191.616C584.643 191.616 584.099 191.072 584.099 190.4C584.099 189.728 584.643 189.184 585.313 189.184C585.983 189.184 586.527 189.728 586.527 190.4Z" fill="#7C71F5" stroke="#7C71F5"/>
<path d="M586.527 202.389C586.527 203.061 585.983 203.605 585.313 203.605C584.643 203.605 584.099 203.061 584.099 202.389C584.099 201.717 584.643 201.173 585.313 201.173C585.983 201.173 586.527 201.717 586.527 202.389Z" fill="#7C71F5" stroke="#7C71F5"/>
<path d="M586.527 214.369C586.527 215.041 585.983 215.585 585.313 215.585C584.643 215.585 584.099 215.041 584.099 214.369C584.099 213.697 584.643 213.153 585.313 213.153C585.983 213.153 586.527 213.697 586.527 214.369Z" fill="#7C71F5" stroke="#7C71F5"/>
<path d="M586.527 226.358C586.527 227.031 585.983 227.575 585.313 227.575C584.643 227.575 584.099 227.031 584.099 226.358C584.099 225.686 584.643 225.142 585.313 225.142C585.983 225.142 586.527 225.686 586.527 226.358Z" fill="#7C71F5" stroke="#7C71F5"/>
<path d="M586.527 238.338C586.527 239.011 585.983 239.555 585.313 239.555C584.643 239.555 584.099 239.011 584.099 238.338C584.099 237.666 584.643 237.122 585.313 237.122C585.983 237.122 586.527 237.666 586.527 238.338Z" fill="#7C71F5" stroke="#7C71F5"/>
<path d="M586.527 250.327C586.527 251 585.983 251.544 585.313 251.544C584.643 251.544 584.099 251 584.099 250.327C584.099 249.655 584.643 249.111 585.313 249.111C585.983 249.111 586.527 249.655 586.527 250.327Z" fill="#7C71F5" stroke="#7C71F5"/>
<path d="M586.527 262.307C586.527 262.98 585.983 263.524 585.313 263.524C584.643 263.524 584.099 262.98 584.099 262.307C584.099 261.635 584.643 261.091 585.313 261.091C585.983 261.091 586.527 261.635 586.527 262.307Z" fill="#7C71F5" stroke="#7C71F5"/>
<path d="M574.564 190.4C574.564 191.072 574.02 191.616 573.35 191.616C572.68 191.616 572.136 191.072 572.136 190.4C572.136 189.728 572.68 189.184 573.35 189.184C574.02 189.184 574.564 189.728 574.564 190.4Z" fill="#7C71F5" stroke="#7C71F5"/>
<path d="M574.564 202.389C574.564 203.061 574.02 203.605 573.35 203.605C572.68 203.605 572.136 203.061 572.136 202.389C572.136 201.717 572.68 201.173 573.35 201.173C574.02 201.173 574.564 201.717 574.564 202.389Z" fill="#7C71F5" stroke="#7C71F5"/>
<path d="M574.564 214.369C574.564 215.041 574.02 215.585 573.35 215.585C572.68 215.585 572.136 215.041 572.136 214.369C572.136 213.697 572.68 213.153 573.35 213.153C574.02 213.153 574.564 213.697 574.564 214.369Z" fill="#7C71F5" stroke="#7C71F5"/>
<path d="M574.564 226.358C574.564 227.031 574.02 227.575 573.35 227.575C572.68 227.575 572.136 227.031 572.136 226.358C572.136 225.686 572.68 225.142 573.35 225.142C574.02 225.142 574.564 225.686 574.564 226.358Z" fill="#7C71F5" stroke="#7C71F5"/>
<path d="M574.564 238.338C574.564 239.011 574.02 239.555 573.35 239.555C572.68 239.555 572.136 239.011 572.136 238.338C572.136 237.666 572.68 237.122 573.35 237.122C574.02 237.122 574.564 237.666 574.564 238.338Z" fill="#7C71F5" stroke="#7C71F5"/>
<path d="M574.564 250.327C574.564 251 574.02 251.544 573.35 251.544C572.68 251.544 572.136 251 572.136 250.327C572.136 249.655 572.68 249.111 573.35 249.111C574.02 249.111 574.564 249.655 574.564 250.327Z" fill="#7C71F5" stroke="#7C71F5"/>
<path d="M574.564 262.307C574.564 262.98 574.02 263.524 573.35 263.524C572.68 263.524 572.136 262.98 572.136 262.307C572.136 261.635 572.68 261.091 573.35 261.091C574.02 261.091 574.564 261.635 574.564 262.307Z" fill="#7C71F5" stroke="#7C71F5"/>
<path d="M562.591 190.4C562.591 191.072 562.047 191.616 561.377 191.616C560.707 191.616 560.163 191.072 560.163 190.4C560.163 189.728 560.707 189.184 561.377 189.184C562.047 189.184 562.591 189.728 562.591 190.4Z" fill="#7C71F5" stroke="#7C71F5"/>
<path d="M562.591 202.389C562.591 203.061 562.047 203.605 561.377 203.605C560.707 203.605 560.163 203.061 560.163 202.389C560.163 201.717 560.707 201.173 561.377 201.173C562.047 201.173 562.591 201.717 562.591 202.389Z" fill="#7C71F5" stroke="#7C71F5"/>
<path d="M562.591 214.369C562.591 215.041 562.047 215.585 561.377 215.585C560.707 215.585 560.163 215.041 560.163 214.369C560.163 213.697 560.707 213.153 561.377 213.153C562.047 213.153 562.591 213.697 562.591 214.369Z" fill="#7C71F5" stroke="#7C71F5"/>
<path d="M562.591 226.358C562.591 227.031 562.047 227.575 561.377 227.575C560.707 227.575 560.163 227.031 560.163 226.358C560.163 225.686 560.707 225.142 561.377 225.142C562.047 225.142 562.591 225.686 562.591 226.358Z" fill="#7C71F5" stroke="#7C71F5"/>
<path d="M562.591 238.338C562.591 239.011 562.047 239.555 561.377 239.555C560.707 239.555 560.163 239.011 560.163 238.338C560.163 237.666 560.707 237.122 561.377 237.122C562.047 237.122 562.591 237.666 562.591 238.338Z" fill="#7C71F5" stroke="#7C71F5"/>
<path d="M562.591 250.327C562.591 251 562.047 251.544 561.377 251.544C560.707 251.544 560.163 251 560.163 250.327C560.163 249.655 560.707 249.111 561.377 249.111C562.047 249.111 562.591 249.655 562.591 250.327Z" fill="#7C71F5" stroke="#7C71F5"/>
<path d="M562.591 262.307C562.591 262.98 562.047 263.524 561.377 263.524C560.707 263.524 560.163 262.98 560.163 262.307C560.163 261.635 560.707 261.091 561.377 261.091C562.047 261.091 562.591 261.635 562.591 262.307Z" fill="#7C71F5" stroke="#7C71F5"/>
<path d="M455.737 318.882L453.795 342.54H463.871L469.105 318.882H455.737Z" fill="#FEC9CF"/>
<path d="M464.965 337.591C464.965 337.591 469.342 344.668 466.06 345.928C462.777 347.188 441.166 347.298 435.832 346.503C430.497 345.7 447.731 338.386 451.671 337.235C455.619 336.085 456.886 342.084 464.965 337.591Z" fill="#4D42C2"/>
<path d="M508.716 318.882L510.649 342.54H500.573L495.348 318.882H508.716Z" fill="#FEC9CF"/>
<path d="M499.479 337.591C499.479 337.591 495.102 344.668 498.385 345.928C501.668 347.188 523.279 347.298 528.613 346.503C533.947 345.7 516.713 338.386 512.774 337.235C508.835 336.085 507.558 342.084 499.479 337.591Z" fill="#4D42C2"/>
<path d="M453.713 189.522L449.145 331.373H470.418L475.005 236.894L493.233 334.085L516.403 330.223C516.403 330.223 495.485 224.202 491.929 189.531H453.713V189.522Z" fill="#D8D8E3"/>
<path d="M474.027 243.4L473.304 228.1L474.502 236.9L474.027 243.4Z" fill="#194248" stroke="#E1E1E8"/>
<path d="M485.09 189.522L509.71 331.017" stroke="#E1E1E8" stroke-miterlimit="10" stroke-linecap="round" stroke-linejoin="round"/>
<path d="M479.965 84.9622C484.506 84.9713 489.33 87.3545 490.862 91.637C492.048 94.9333 491.154 98.8231 492.814 101.909C494.035 104.192 496.479 105.662 497.583 108C499.862 112.858 495.421 118.628 496.835 123.797C498.139 128.581 504.057 131.321 504.549 136.26C504.868 139.411 502.652 142.433 499.798 143.803C496.953 145.182 493.616 145.172 490.497 144.652C482.847 143.364 475.643 139.164 467.892 139.566C464.701 139.73 461.364 140.662 458.409 139.429C456.303 138.552 454.78 136.699 453.44 134.854C451.899 132.736 450.421 130.325 450.567 127.714C450.777 123.879 454.251 121.194 456.33 117.971C458.455 114.675 459.348 110.557 458.756 106.676C455.938 88.2311 466.297 88.7972 467.619 88.7698C468.832 88.7424 472.862 86.2679 474.458 85.8022C476.263 85.2817 478.105 84.9622 479.965 84.9622Z" fill="#D38D00"/>
<path d="M431.3 162.348C426.914 158.85 409.078 147.035 408.904 145.382C408.576 142.277 407.491 139.821 400.844 137.703C400.844 137.703 400.315 138.689 401.236 139.776C402.23 140.953 403.032 141.364 403.032 141.364C403.032 141.364 401.263 142.022 398.655 139.94C396.047 137.858 394.962 136.059 393.85 136.488C393.85 136.488 392.555 135.292 391.935 135.475C391.935 135.475 391.479 135.603 391.561 136.096C390.53 135.922 390.713 138.89 392.509 141.328C395.099 144.825 399.667 147.491 402.348 148.505C404.354 149.263 417.512 168.748 426.33 170.858C428.865 171.442 433.342 163.973 431.3 162.348Z" fill="#FCDDC6"/>
<path d="M445.096 145.063C445.096 145.063 425.382 158.832 423.476 162.257C421.57 165.681 422.993 174.821 431.774 168.95C440.555 163.078 454.415 152.422 454.415 152.422L445.096 145.063Z" fill="#FCDDC6"/>
<path d="M455.227 132.526C455.227 132.526 449.81 133.896 446.199 138.196C443.172 141.803 438.294 147.61 438.294 147.61L453.248 159.243C453.257 159.234 456.905 138.087 455.227 132.526Z" fill="#47248F"/>
<path d="M491.929 189.522H453.704C453.704 189.522 453.859 182.957 451.734 172.757C449.601 162.567 450.667 157.235 452.792 151.911C454.926 146.588 451.123 134.279 455.227 132.526C456.895 131.814 459.795 130.663 462.64 129.558C463.36 129.284 464.072 129.001 464.756 128.736C468.057 127.458 470.838 126.399 470.838 126.399H477.722C477.722 126.399 482.464 127.969 487.333 129.914C487.972 130.17 488.619 130.435 489.257 130.7C489.257 130.709 489.257 130.709 489.257 130.709C491.71 131.741 494.054 132.827 495.649 133.822C500.82 137.018 491.929 189.522 491.929 189.522Z" fill="#4D42C2"/>
<path d="M468.521 109.461L469.251 123.632L469.461 127.677C469.552 129.394 470.3 130.928 471.467 132.033C472.625 133.138 474.193 133.804 475.908 133.804C479.537 133.804 482.455 130.809 482.364 127.184L482.181 119.971L481.871 107.982L468.521 109.461Z" fill="#FFDFC8"/>
<path d="M468.521 109.461L469.251 122.811C475.515 123.066 480.093 120.51 482.19 117.113L481.88 107.982L468.521 109.461Z" fill="#DA9F74"/>
<path d="M463.543 98.4854C463.543 98.4854 463.078 103.106 463.725 108.21C464.473 114.118 465.129 120.884 472.908 121.523C482.172 122.281 485.263 111.616 485.263 111.616C485.263 111.616 489.567 110.611 490.096 107.671C490.625 104.722 487.415 103.836 486.294 104.768C486.294 104.768 485.017 92.3311 473.546 92.3311C463.406 92.3311 463.543 98.4854 463.543 98.4854Z" fill="#FFDFC8"/>
<path d="M489.257 130.7C489.257 130.709 489.257 130.709 489.257 130.7C481.415 140.269 472.169 139.822 472.169 139.822C464.874 138.224 462.64 129.558 462.64 129.558C463.361 129.284 464.072 129.001 464.756 128.736C468.057 127.458 470.838 126.399 470.838 126.399H477.722C477.722 126.399 482.464 127.969 487.333 129.914C487.972 130.17 488.619 130.435 489.257 130.7Z" fill="#04D361"/>
<path d="M487.333 129.914C479.336 138.616 472.406 137.703 472.406 137.703C464.956 134.845 464.755 128.736 464.755 128.736C468.056 127.458 470.838 126.399 470.838 126.399H477.722C477.722 126.399 482.464 127.969 487.333 129.914Z" fill="#FCDDC6"/>
<path d="M467.537 89.6465C467.537 89.6465 468.604 98.6406 462.832 101.608C462.832 101.608 459.941 90.7148 467.537 89.6465Z" fill="#D38D00"/>
<path d="M465.786 90.5046C465.786 90.5046 467.838 98.339 472.926 98.7956C478.014 99.2522 477.111 103.379 481.616 103.854C484.297 104.137 485.491 106.931 485.491 106.931C485.491 106.931 485.883 104.156 488.309 103.169C490.753 102.183 482.573 81.4466 465.786 90.5046Z" fill="#D38D00"/>
<path d="M474.421 109.36C474.421 109.853 474.813 110.246 475.306 110.246C475.798 110.246 476.19 109.853 476.19 109.36C476.19 108.867 475.798 108.475 475.306 108.475C474.822 108.475 474.421 108.876 474.421 109.36Z" fill="#60423D"/>
<path d="M466.416 109.359C466.416 109.852 466.808 110.245 467.3 110.245C467.793 110.245 468.185 109.852 468.185 109.359C468.185 108.866 467.784 108.474 467.3 108.474C466.808 108.474 466.416 108.876 466.416 109.359Z" fill="#60423D"/>
<path d="M478.533 106.274C478.533 106.274 477.22 104.11 474.421 104.886" stroke="#561E15" stroke-miterlimit="10" stroke-linecap="round" stroke-linejoin="round"/>
<path d="M469.606 104.859C469.606 104.859 467.582 103.015 465.604 105.032" stroke="#561E15" stroke-miterlimit="10" stroke-linecap="round" stroke-linejoin="round"/>
<path d="M471.375 107.059C471.375 107.059 470.418 109.506 469.606 111.031C468.795 112.556 471.202 113.231 471.202 113.231" stroke="#DA9F74" stroke-width="0.75" stroke-miterlimit="10" stroke-linecap="round" stroke-linejoin="round"/>
<path d="M476.682 114.967C476.682 114.967 475.123 117.24 472.406 116.592" stroke="#DA9F74" stroke-width="0.75" stroke-miterlimit="10" stroke-linecap="round" stroke-linejoin="round"/>
<path d="M486.266 108.739C486.266 108.739 486.294 105.982 488.345 106.74" stroke="#DA9F74" stroke-width="0.75" stroke-miterlimit="10" stroke-linecap="round" stroke-linejoin="round"/>
<path d="M454.488 180.409H419.473C418.78 180.409 418.215 179.843 418.215 179.149C418.215 178.455 418.78 177.889 419.473 177.889H454.488C455.181 177.889 455.747 178.455 455.747 179.149C455.738 179.852 455.181 180.409 454.488 180.409Z" fill="#04D361"/>
<path d="M415.535 150.622L415.535 150.622L415.535 150.62C415.323 149.777 415.968 148.95 416.837 148.95H448.378C448.998 148.95 449.534 149.37 449.68 149.966L449.68 149.968L456.475 177.398H422.171L415.535 150.622Z" fill="#04D361" stroke="#04D361"/>
<path d="M454.689 177.898H419.354L412.625 150.742C412.333 149.583 413.218 148.45 414.412 148.45H445.953C446.801 148.45 447.54 149.026 447.74 149.847L454.689 177.898Z" fill="white"/>
<path d="M481.588 180.409H455.09C454.442 180.409 453.914 179.88 453.914 179.231V179.076C453.914 178.428 454.442 177.898 455.09 177.898H481.588C482.236 177.898 482.765 178.428 482.765 179.076V179.231C482.774 179.889 482.245 180.409 481.588 180.409Z" fill="#04D361"/>
<path d="M434.48 161.632L434.48 161.633C435.072 163.168 434.519 164.577 433.571 164.95C432.628 165.312 431.274 164.638 430.681 163.099C430.088 161.561 430.645 160.146 431.589 159.783C432.533 159.419 433.888 160.086 434.48 161.632Z" fill="#04D361" stroke="#04D361"/>
<path d="M493.862 177.898L491.564 148.076L495.978 160.631L493.862 177.898Z" fill="#47248F"/>
<path d="M494.163 151.108C494.163 151.108 499.616 180.455 500.965 185.258C501.841 188.362 508.206 190.481 510.203 186.372C510.64 185.468 510.54 183.961 510.494 182.427C510.184 172.94 503.555 148.797 503.555 148.797L494.163 151.108Z" fill="#FCDDC6"/>
<path d="M495.659 133.823C495.659 133.823 498.914 135.493 501.649 140.214C504.385 144.935 508.16 153.263 507.923 155.281C506.501 159.161 495.266 163.179 495.266 163.179C495.266 163.179 487.762 138.479 495.659 133.823Z" fill="#4D42C2"/>
<path d="M501.959 179.587C501.959 179.587 484.643 179.204 481.36 177.25C476.911 174.593 475.88 175.743 473.3 175.104C469.16 174.072 469.616 174.912 469.616 174.912C469.616 174.912 469.807 177.314 473.008 177.615C474.622 177.77 477.038 178.455 476.528 178.848C476.528 178.848 463.689 180.19 461.108 180.418C458.528 180.647 459.786 182.637 461.756 183.094C461.756 183.094 462.932 184.582 464.838 184.126C464.838 184.126 464.418 184.966 469.36 184.966C474.303 184.966 479.263 182.336 481.771 183.477C484.278 184.619 497.82 189.869 506.409 188.655C510.513 188.07 510.54 186.098 510.54 184.016C510.54 180.409 507.877 179.953 501.959 179.587Z" fill="#FCDDC6"/>
<path d="M142.705 318.882L136.988 342.541H126.912L129.338 318.882H142.705Z" fill="#BC8567"/>
<path d="M125.818 337.592C125.818 337.592 121.441 344.668 124.724 345.928C128.007 347.188 149.618 347.298 154.952 346.503C160.286 345.7 143.052 338.386 139.113 337.235C135.174 336.085 133.897 342.084 125.818 337.592Z" fill="#4D42C2"/>
<path d="M110.973 318.882L107.517 342.541H97.4407L97.6048 318.882H110.973Z" fill="#BC8567"/>
<path d="M96.347 337.592C96.347 337.592 91.9701 344.668 95.2528 345.928C98.5355 347.188 120.147 347.298 125.481 346.503C130.815 345.7 113.581 338.386 109.642 337.235C105.703 336.085 104.426 342.084 96.347 337.592Z" fill="#4D42C2"/>
<path d="M94.04 204.461L94.7878 330.707H110.782L122.08 237.953L134.955 275.592L125.317 330.716H142.715C142.715 330.716 158.007 283.079 157.387 273.729C156.767 264.37 139.113 200.616 139.113 200.616L94.04 204.461Z" fill="#E9E9F0"/>
<path d="M124.944 244.816L122.579 237.894L123.681 226.693L124.944 244.816Z" fill="#E1E1E8" stroke="#E1E1E8"/>
<path d="M103.068 202.936L102.146 330.716" stroke="#E1E1E8" stroke-miterlimit="10"/>
<path d="M152.043 146.643C152.043 146.643 162.375 166.211 162.603 172.219C162.83 178.227 156.22 176.885 152.8 171.47C149.381 166.046 143.909 150.67 143.909 150.67L152.043 146.643Z" fill="#BC8567"/>
<path d="M153.976 148.277C153.976 148.277 151.013 153.555 143.909 156.778C142.441 157.445 141.201 155.682 140.28 153.591C139.213 151.153 138.593 148.277 138.593 148.277C138.593 148.277 130.45 123.048 137.627 123.952C137.627 123.952 143.736 124.381 148.223 133.238C149.399 135.548 151.232 140.205 152.764 144.625C153.201 145.885 153.612 147.117 153.976 148.277Z" fill="#47248F"/>
<path d="M153.976 148.277C153.976 148.277 151.013 153.555 143.909 156.778C142.441 157.445 141.201 155.682 140.28 153.591C143.061 152.341 148.323 149.528 152.764 144.625C153.201 145.885 153.612 147.118 153.976 148.277Z" fill="#04D361"/>
<path d="M139.478 201.995C134.964 207.127 105.247 206.369 94.0308 204.461C92.0612 204.123 90.119 203.365 93.2284 196.498C94.3956 193.933 93.8941 187.331 93.6934 178.255C93.3013 160.312 87.9852 130.545 94.5415 127.13C98.4716 125.075 106.815 122.372 112.879 120.528C113.244 120.427 113.599 120.318 113.946 120.208C117.484 119.149 120.01 118.446 120.01 118.446C120.01 118.446 122.937 118.875 128.891 120.637C129.21 120.729 129.557 120.838 129.903 120.939C131.453 121.414 133.177 121.961 135.101 122.619C138.83 123.888 141.566 124.664 142.232 125.906C144.01 129.166 143.326 134.946 143.435 143.273C143.581 153.728 143.472 197.466 139.478 201.995Z" fill="#4D42C2"/>
<path d="M92.2983 157.938L98.7087 142.287L94.04 182.546L92.2983 157.938Z" fill="#47248F"/>
<path d="M129.903 120.948C129.766 123.158 128.773 125.102 127.277 126.527C125.745 127.988 123.675 128.874 121.423 128.874C116.763 128.874 112.988 125.139 112.897 120.519C113.262 120.418 113.617 120.309 113.964 120.199C117.502 119.14 120.028 118.437 120.028 118.437C120.028 118.437 122.955 118.866 128.909 120.628C129.219 120.747 129.557 120.847 129.903 120.948Z" fill="#04D361"/>
<path d="M133.789 86.5001C133.789 86.5001 130.413 83.2689 125.304 82.5001C117.83 81.3756 107.991 83.8105 106.031 95.2348C104.481 101.818 112.496 112.639 115.523 112.009C115.523 112.009 142.774 94.7348 133.789 86.5001Z" fill="#43302D"/>
<path d="M128.882 102.33L128.153 116.501L127.943 120.546C127.861 122.263 127.104 123.797 125.937 124.902C124.779 126.006 123.21 126.673 121.496 126.673C117.867 126.673 114.949 123.678 115.04 120.053L115.222 112.839L115.532 100.85L128.882 102.33Z" fill="#BC8567"/>
<path d="M128.882 105.151L128.153 118.501C121.888 118.756 117.311 116.2 115.213 112.803L115.523 103.672L128.882 105.151Z" fill="#765441"/>
<path d="M133.852 94.1756C133.852 94.1756 134.317 98.7959 133.669 103.9C132.922 109.808 133.186 116.748 124.487 117.213C115.204 117.706 112.131 107.306 112.131 107.306C112.131 107.306 107.198 106.384 106.861 103.051C106.523 99.7181 109.97 99.5264 111.092 100.458C111.092 100.458 112.368 88.0212 123.839 88.0212C133.988 88.0304 133.852 94.1756 133.852 94.1756Z" fill="#BC8567"/>
<path d="M123.237 103.106C123.237 103.617 122.827 104.028 122.317 104.028C121.806 104.028 121.396 103.617 121.396 103.106C121.396 102.594 121.806 102.184 122.317 102.184C122.818 102.184 123.237 102.594 123.237 103.106Z" fill="#60423D"/>
<path d="M132.11 102.631C132.11 103.142 131.699 103.553 131.189 103.553C130.678 103.553 130.268 103.142 130.268 102.631C130.268 102.12 130.678 101.709 131.189 101.709C131.699 101.709 132.11 102.12 132.11 102.631Z" fill="#60423D"/>
<path d="M118.688 100.467C118.688 100.467 120.046 98.2208 122.954 99.0334" stroke="#43302D" stroke-miterlimit="10" stroke-linecap="round" stroke-linejoin="round"/>
<path d="M127.952 98.9967C127.952 98.9967 130.049 97.0796 132.109 99.1793" stroke="#43302D" stroke-miterlimit="10" stroke-linecap="round" stroke-linejoin="round"/>
<path d="M126.119 101.28C126.119 101.28 127.113 103.818 127.961 105.407C128.809 106.986 126.302 107.69 126.302 107.69" stroke="#765441" stroke-width="0.75" stroke-miterlimit="10" stroke-linecap="round" stroke-linejoin="round"/>
<path d="M122.782 110.529C122.782 110.529 124.833 112.52 127.468 111.305" stroke="#765441" stroke-width="0.75" stroke-miterlimit="10" stroke-linecap="round" stroke-linejoin="round"/>
<path d="M110.945 104.127C110.945 104.127 110.918 101.27 108.785 102.046" stroke="#765441" stroke-width="0.75" stroke-miterlimit="10" stroke-linecap="round" stroke-linejoin="round"/>
<path d="M113.763 90.8337C113.763 90.8337 118.979 96.1571 116.125 98.1934C112.952 100.458 112.45 103.672 112.45 103.672C112.45 103.672 112.514 102.54 111.101 100.467C109.687 98.3943 106.605 91.0346 113.763 90.8337Z" fill="#43302D"/>
<path d="M85.2041 147.693C85.2041 147.693 74.8727 167.261 74.6448 173.269C74.4168 179.277 81.0278 177.935 84.4472 172.52C87.8667 167.096 93.3379 151.72 93.3379 151.72L85.2041 147.693Z" fill="#BC8567"/>
<path d="M158.873 165.598C158.873 165.598 143.472 154.185 142.596 153.536C141.11 152.422 138.94 150.806 138.156 150.258C136.915 149.391 129.666 148.131 128.654 148.295C127.651 148.459 124.87 148.934 124.058 149.236C123.247 149.537 124.268 150.578 125.07 151.071C125.873 151.564 129.429 153.408 132.447 153.965C134.125 154.276 135.566 155.125 136.742 155.974C137.681 156.65 153.931 173.241 154.542 173.643L158.873 165.598Z" fill="#BC8567"/>
<path d="M139.806 151.592C139.806 151.592 134.007 146.159 133.14 146.241C132.283 146.323 132.894 147.547 135.174 149.4C135.949 150.03 136.779 151.026 137.472 151.354C138.83 151.993 139.806 151.592 139.806 151.592Z" fill="#BC8567"/>
<path d="M135.133 171.165L135.135 171.165C135.648 171.107 136.072 170.736 136.204 170.231L136.204 170.23L141.255 150.782C141.255 150.782 141.255 150.782 141.255 150.781C141.255 150.781 141.255 150.781 141.255 150.781C141.477 149.926 140.765 149.108 139.883 149.212C139.883 149.212 139.883 149.212 139.883 149.212L118.738 151.741L118.735 151.742L118.735 151.742C118.223 151.8 117.798 152.171 117.667 152.676L117.667 152.676L112.615 172.125C112.393 172.981 113.105 173.799 113.987 173.695L135.133 171.165ZM135.133 171.165L113.987 173.695L135.133 171.165Z" fill="#04D361" stroke="#04D361"/>
<path d="M136.132 172.31L114.986 174.839C113.755 174.986 112.761 173.844 113.071 172.648L118.123 153.199C118.305 152.496 118.898 151.975 119.618 151.893L140.764 149.364C141.995 149.218 142.989 150.359 142.679 151.555L137.627 171.004C137.445 171.698 136.852 172.219 136.132 172.31Z" fill="white"/>
<path d="M119.863 157.108L119.863 157.108L119.861 157.113C119.861 157.117 119.857 157.126 119.845 157.137C119.833 157.147 119.818 157.155 119.8 157.159L118.794 157.276L118.794 157.276C118.773 157.279 118.754 157.272 118.738 157.254C118.723 157.236 118.719 157.217 118.724 157.196L118.724 157.196L119.718 153.38L119.718 153.38L119.721 153.37C119.725 153.351 119.742 153.334 119.768 153.33L120.787 153.212L120.787 153.212C120.808 153.209 120.827 153.216 120.842 153.234C120.858 153.252 120.862 153.271 120.857 153.292L120.856 153.292L119.863 157.108ZM120.347 157.234L121.34 153.418L119.873 157.654C120.1 157.618 120.292 157.453 120.347 157.234Z" fill="#04D361" stroke="#04D361"/>
<path d="M78.593 167.48C85.049 167.736 105.228 167.316 107.9 166.402C109.049 166.01 111.876 165.416 112.596 164.293C113.326 163.152 113.946 161.417 114.703 161.289C115.286 161.189 115.149 163.07 114.976 163.754C114.648 164.987 114.429 165.626 113.991 166.192C113.845 166.384 118.815 167.096 121.934 166.302C124.076 165.754 123.675 167.471 122.235 168.192C122.235 168.192 122.809 169.69 121.295 170.183C121.295 170.183 121.56 171.845 120.101 171.972C119.946 172.383 119.49 173.123 118.231 173.479C116.408 173.99 113.244 173.981 110.836 174.082C109.414 174.136 81.9213 178.437 77.0611 177.214C75.0368 176.702 76.4957 167.398 78.593 167.48Z" fill="#BC8567"/>
<path d="M97.1219 150.323C97.1219 150.323 96.6478 152.121 95.9456 153.975C95.1614 156.02 94.0946 158.121 93.0459 157.929C93.0459 157.929 78.7845 153.418 79.2586 151.957C79.6143 150.87 80.2252 149.455 80.982 147.885C83.3438 142.972 87.0915 136.562 88.6052 134.078C93.7663 125.596 95.8818 126.673 95.8818 126.673C103.113 126.326 97.1219 150.323 97.1219 150.323Z" fill="#4D42C2"/>
<path d="M95.9456 153.975C95.1614 156.02 94.0946 158.12 93.0459 157.929C93.0459 157.929 78.7845 153.418 79.2586 151.957C79.6143 150.87 80.2252 149.455 80.982 147.885C83.6082 149.126 90.6933 152.386 95.9456 153.975Z" fill="#04D361"/>
<path d="M100.469 193.96C100.469 193.96 124.177 190.152 136.943 182.546C136.943 182.546 122.663 196.855 100.469 193.96Z" fill="#47248F"/>
<path d="M396.148 284.439H334.497C331.46 284.439 329.008 281.974 329.008 278.943V249.111C329.008 246.071 331.47 243.615 334.497 243.615H396.148C399.184 243.615 401.637 246.08 401.637 249.111V278.933C401.646 281.974 399.184 284.439 396.148 284.439Z" fill="#4D42C2"/>
<path d="M335.545 273.893C341.29 273.893 341.29 267.045 347.035 267.045C352.779 267.045 352.779 257.914 358.524 257.914C364.269 257.914 364.269 261.411 370.013 261.411C375.758 261.411 375.758 252.965 381.503 252.965C387.247 252.965 387.247 266.214 392.992 266.214" stroke="white" stroke-width="2" stroke-miterlimit="10" stroke-linecap="round" stroke-linejoin="round"/>
<path d="M337.223 273.893C337.223 272.971 336.475 272.222 335.554 272.222C334.633 272.222 333.886 272.971 333.886 273.893C333.886 274.815 334.633 275.563 335.554 275.563C336.475 275.563 337.223 274.815 337.223 273.893Z" fill="white"/>
<path d="M394.67 266.223C394.67 265.301 393.922 264.552 393.001 264.552C392.08 264.552 391.333 265.301 391.333 266.223C391.333 267.145 392.08 267.893 393.001 267.893C393.922 267.893 394.67 267.145 394.67 266.223Z" fill="white"/>
<path d="M39.6203 69.0468H101.198C105.32 69.0468 108.666 65.6957 108.666 61.5685V42.7493C108.666 38.6221 105.32 35.271 101.198 35.271H39.6203C35.4987 35.271 32.1522 38.6221 32.1522 42.7493V61.5685C32.1522 65.7048 35.4987 69.0468 39.6203 69.0468Z" fill="#4D42C2"/>
<path d="M99.4928 67.111V75.3107L90.7117 66.5266L99.4928 67.111Z" fill="#4D42C2"/>
<path d="M39.2281 43.562H56.2981" stroke="white" stroke-width="2.2165" stroke-miterlimit="10" stroke-linecap="round" stroke-linejoin="round"/>
<path d="M62.3802 43.562H101.59" stroke="white" stroke-width="2.2165" stroke-miterlimit="10" stroke-linecap="round" stroke-linejoin="round"/>
<path d="M39.2281 52.1636H71.052" stroke="white" stroke-width="2.2165" stroke-miterlimit="10" stroke-linecap="round" stroke-linejoin="round"/>
<path d="M75.9214 52.1636H85.3409" stroke="white" stroke-width="2.2165" stroke-miterlimit="10" stroke-linecap="round" stroke-linejoin="round"/>
<path d="M90.3926 52.1636H101.59" stroke="white" stroke-width="2.2165" stroke-miterlimit="10" stroke-linecap="round" stroke-linejoin="round"/>
<path d="M39.2281 60.7559H46.4318" stroke="white" stroke-width="2.2165" stroke-miterlimit="10" stroke-linecap="round" stroke-linejoin="round"/>
<path d="M50.8452 60.7559H76.8332" stroke="white" stroke-width="2.2165" stroke-miterlimit="10" stroke-linecap="round" stroke-linejoin="round"/>
<path d="M422.892 38.5513H407.09C404.153 38.5513 401.773 36.1681 401.773 33.2279V17.4037C401.773 14.4635 404.153 12.0803 407.09 12.0803H422.892C425.828 12.0803 428.208 14.4635 428.208 17.4037V33.2279C428.208 36.1681 425.828 38.5513 422.892 38.5513Z" fill="#4D42C2"/>
<path d="M423.986 23.9499L423.594 22.215C423.521 21.8771 423.174 21.6671 422.837 21.7402L421.815 21.9776C421.551 22.0415 421.287 21.9137 421.141 21.6854C420.739 21.0553 420.247 20.4892 419.682 20.0144C419.454 19.8227 419.381 19.5122 419.508 19.2474L420.019 18.1973C420.174 17.8869 420.037 17.5034 419.727 17.3573L418.122 16.5811C417.812 16.4259 417.429 16.5629 417.283 16.8733L416.736 18.0147C416.618 18.2704 416.335 18.3982 416.062 18.3617C415.724 18.316 415.369 18.2886 415.022 18.2886C414.666 18.2886 414.32 18.316 413.983 18.3617C413.7 18.3982 413.426 18.2704 413.308 18.0147L412.761 16.8733C412.606 16.5629 412.232 16.4259 411.922 16.5811L410.317 17.3573C410.007 17.5125 409.87 17.8869 410.025 18.1973L410.536 19.2474C410.663 19.5122 410.581 19.8227 410.363 20.0144C409.797 20.4984 409.296 21.0553 408.904 21.6854C408.758 21.9137 408.493 22.0415 408.229 21.9776L407.207 21.7402C406.87 21.6671 406.533 21.8771 406.451 22.215L406.059 23.9499C405.986 24.2877 406.195 24.6256 406.533 24.7078L407.828 25C407.818 25.1826 407.8 25.3561 407.8 25.5387C407.8 26.4061 407.955 27.2462 408.238 28.0132C408.329 28.2689 408.265 28.5611 408.046 28.7346L407.545 29.1363C407.271 29.3555 407.226 29.7481 407.445 30.0221L408.502 31.4191C408.721 31.693 409.113 31.7387 409.387 31.5195L409.733 31.2365C409.97 31.0539 410.299 31.063 410.527 31.2456C411.256 31.8117 412.086 32.25 412.998 32.5148C413.271 32.597 413.472 32.8344 413.472 33.1266V33.4919C413.472 33.8388 413.755 34.1219 414.101 34.1219H415.879C416.226 34.1219 416.508 33.8388 416.508 33.4919V33.1266C416.508 32.8344 416.709 32.597 416.983 32.5148C417.894 32.25 418.724 31.8209 419.454 31.2456C419.691 31.063 420.019 31.0447 420.247 31.2365L420.594 31.5195C420.867 31.7387 421.259 31.693 421.478 31.4191L422.591 30.0312C422.809 29.7573 422.764 29.3646 422.49 29.1455L421.989 28.7437C421.77 28.5702 421.706 28.278 421.797 28.0223C422.08 27.2462 422.235 26.4153 422.235 25.5478C422.235 25.3652 422.217 25.1917 422.208 25.0091L423.502 24.7169C423.849 24.6256 424.059 24.2877 423.986 23.9499ZM414.995 30.0494C412.505 30.0494 410.49 28.0315 410.49 25.5387C410.49 23.0459 412.505 21.028 414.995 21.028C417.484 21.028 419.499 23.0459 419.499 25.5387C419.499 28.0315 417.484 30.0494 414.995 30.0494Z" fill="white"/>
<path d="M563.142 143.349C564.761 133.369 557.993 123.966 548.026 122.348C538.059 120.73 528.666 127.508 527.047 137.489C525.428 147.469 532.196 156.872 542.163 158.49C552.13 160.109 561.523 153.33 563.142 143.349Z" fill="#4D42C2"/>
<path d="M555.102 142.823C556.407 137.292 552.987 131.751 547.463 130.446C541.94 129.141 536.404 132.567 535.098 138.097C533.793 143.628 537.212 149.17 542.736 150.475C548.26 151.779 553.796 148.354 555.102 142.823Z" fill="#4D42C2" stroke="white" stroke-width="2" stroke-miterlimit="10" stroke-linecap="round" stroke-linejoin="round"/>
<path d="M545.081 133.695V140.424L541.534 143.976" fill="#4D42C2"/>
<path d="M545.081 133.695V140.424L541.534 143.976" stroke="white" stroke-width="2" stroke-miterlimit="10" stroke-linecap="round" stroke-linejoin="round"/>
<path d="M545.081 130.134V131.12" stroke="white" stroke-width="2" stroke-miterlimit="10" stroke-linecap="round" stroke-linejoin="round"/>
<path d="M545.081 149.738V150.715" stroke="white" stroke-width="2" stroke-miterlimit="10" stroke-linecap="round" stroke-linejoin="round"/>
<path d="M555.358 140.424H554.373" stroke="white" stroke-width="2" stroke-miterlimit="10" stroke-linecap="round" stroke-linejoin="round"/>
<path d="M535.79 140.424H534.804" stroke="white" stroke-width="2" stroke-miterlimit="10" stroke-linecap="round" stroke-linejoin="round"/>
</svg>
