<svg width="437" height="68" viewBox="0 0 437 68" fill="none" xmlns="http://www.w3.org/2000/svg">
<path d="M0.58 1.9H39.64C46.15 1.9 50.862 3.388 53.776 6.364C56.752 9.278 58.24 13.99 58.24 20.5V29.8C58.24 36.31 56.752 41.053 53.776 44.029C50.862 46.943 46.15 48.4 39.64 48.4H17.32V67H0.58V1.9ZM41.5 20.5C41.5 16.78 39.64 14.92 35.92 14.92H17.32V35.38H35.92C39.64 35.38 41.5 33.52 41.5 29.8V20.5ZM102.411 31.195C98.5054 31.195 94.4754 32.125 90.3214 33.985V67H74.0464V17.71H88.4614L89.3914 23.755C94.7234 19.105 100.303 16.78 106.131 16.78H110.316V31.195H102.411ZM173.596 53.05C173.596 57.7 172.263 61.358 169.597 64.024C166.993 66.628 163.366 67.93 158.716 67.93H137.326C132.676 67.93 129.018 66.628 126.352 64.024C123.748 61.358 122.446 57.7 122.446 53.05V31.66C122.446 27.01 123.748 23.383 126.352 20.779C129.018 18.113 132.676 16.78 137.326 16.78H158.716C163.366 16.78 166.993 18.113 169.597 20.779C172.263 23.383 173.596 27.01 173.596 31.66V53.05ZM157.321 33.055C157.321 30.575 156.081 29.335 153.601 29.335H142.441C139.961 29.335 138.721 30.575 138.721 33.055V51.655C138.721 54.135 139.961 55.375 142.441 55.375H153.601C156.081 55.375 157.321 54.135 157.321 51.655V33.055ZM230.315 14.455C228.517 14.331 226.13 14.145 223.154 13.897C220.178 13.649 217.605 13.525 215.435 13.525C213.265 13.525 211.87 13.835 211.25 14.455C210.63 15.075 210.32 15.85 210.32 16.78V21.43H225.665V33.985H210.32V67H194.045V33.985H187.535V21.43H194.045V14.92C194.045 10.704 195.316 7.325 197.858 4.783C200.4 2.241 203.779 0.969996 207.995 0.969996C211.777 0.969996 215.776 1.094 219.992 1.342C224.208 1.59 227.649 1.776 230.315 1.9V14.455ZM290.784 53.05C290.784 57.7 289.451 61.358 286.785 64.024C284.181 66.628 280.554 67.93 275.904 67.93H254.514C249.864 67.93 246.206 66.628 243.54 64.024C240.936 61.358 239.634 57.7 239.634 53.05V31.66C239.634 27.01 240.936 23.383 243.54 20.779C246.206 18.113 249.864 16.78 254.514 16.78H275.904C280.554 16.78 284.181 18.113 286.785 20.779C289.451 23.383 290.784 27.01 290.784 31.66V53.05ZM274.509 33.055C274.509 30.575 273.269 29.335 270.789 29.335H259.629C257.149 29.335 255.909 30.575 255.909 33.055V51.655C255.909 54.135 257.149 55.375 259.629 55.375H270.789C273.269 55.375 274.509 54.135 274.509 51.655V33.055ZM335.878 31.195C331.972 31.195 327.942 32.125 323.788 33.985V67H307.513V17.71H321.928L322.858 23.755C328.19 19.105 333.77 16.78 339.598 16.78H343.783V31.195H335.878ZM391.674 16.78C396.696 16.78 400.571 18.64 403.299 22.36C406.151 20.438 409.22 19.043 412.506 18.175C415.854 17.245 418.83 16.78 421.434 16.78H422.364C426.58 16.78 429.959 18.051 432.501 20.593C435.043 23.135 436.314 26.514 436.314 30.73V67H420.039V33.52C420.039 32.59 419.729 31.815 419.109 31.195C418.489 30.575 417.714 30.265 416.784 30.265H416.319C413.529 30.265 409.964 30.885 405.624 32.125V67H389.349V33.52C389.349 32.59 389.039 31.815 388.419 31.195C387.799 30.575 387.024 30.265 386.094 30.265H385.629C382.839 30.265 379.274 30.885 374.934 32.125V67H358.659V17.71H373.074L374.004 22.36C376.918 20.438 379.894 19.043 382.932 18.175C386.032 17.245 388.636 16.78 390.744 16.78H391.674Z" fill="white"/>
</svg>
